<?xml version="1.0" encoding="utf-8"?>
<!DOCTYPE svg PUBLIC "-//W3C//DTD SVG 1.1//EN" "http://www.w3.org/Graphics/SVG/1.1/DTD/svg11.dtd">
<svg version="1.1" id="background" xmlns="http://www.w3.org/2000/svg" xmlns:xlink="http://www.w3.org/1999/xlink" x="0px" y="0px"
	 width="1840px" height="1040px" viewBox="0 0 1840 1040" enable-background="new 0 0 1840 1040" xml:space="preserve">
<g>
	<path fill="#E3BF07" d="M1425.498,755.043c-13.26,0-24.814,2.906-24.814,2.906s-26.064,12.254-40.222,27.762
		c-28.856,31.611-23.532,93.416,0,132.326c9.459,15.639,12.625,22.836,35.434,50.219c0,0,54.611,57.034,87.359,57.034
		c3.026,0,5.863-0.486,8.456-1.55c13.27-5.445,23.436-7.271,31.7-7.271c16.789,0,25.745,7.529,37.004,7.545c0.008,0,0.017,0,0.023,0
		c14.473,0,38.53-18.26,45.116-23.483c-11.63-8.814-24.18-21.244-29.698-33.169c-9.938-21.484-16.999-29.66-21.18-65.928
		c-4.18-36.27,10.973-65.689,29.47-83.506c11.729-11.3,33.89-18.457,49.543-18.457c3.075,0,5.9,0.276,8.345,0.852
		c5.718,1.345,10.923,3.038,15.767,4.784c-3.418-7.957-8.232-16.071-14.88-21.61c-14.013-11.679-33.671-21.569-58.526-21.569
		c-10.335,0-21.567,1.709-33.669,5.712c-14.329,4.74-27.955,10.266-42.113,10.656c0.15,1.979,0.204,3.36,0.111,3.869
		c-0.528,2.895-10.049,5.787-10.049,5.787s0.184-3.533-0.102-10.301c-5.198-0.839-10.499-2.518-15.968-5.312
		c-14.938-7.633-28.279-11.918-39.489-15.121C1437.472,755.604,1431.319,755.043,1425.498,755.043"/>
	<path fill="#6A4A24" d="M1508.724,711.272l-11.637,5.787c0,0-1.106,12.097-0.92,25.905c5.605,11.904,9.086,20.771,9.086,20.771
		s-3.022-0.696-7.853-1.81c0.658,6.376,1.001,11.641,1.173,15.726c2.849,0.459,5.665,0.667,8.46,0.667
		c0.527,0,1.054-0.007,1.579-0.022c-0.701-9.271-3.499-31.656-3.062-38.811L1508.724,711.272"/>
	<path fill="#5E3701" d="M1498.573,777.65c0.285,6.768,0.102,10.301,0.102,10.301s9.521-2.893,10.049-5.787
		c0.093-0.509,0.039-1.891-0.111-3.869c-0.525,0.015-1.052,0.022-1.579,0.022C1504.238,778.317,1501.422,778.11,1498.573,777.65"/>
	<path fill="#6A4A24" d="M1407.689,665.666l-57.596,0.289c0,0-0.187,9.484,19.944,36.534c20.132,27.048,59.394,43.23,60.519,43.769
		c0.896,0.43,47.848,11.284,66.844,15.667c-0.098-0.946-0.202-1.915-0.313-2.909c-0.587-5.212-0.849-10.758-0.92-16.052
		c-8.851-18.796-23.002-45.169-37.13-56.197C1435.96,668.756,1407.689,665.666,1407.689,665.666"/>
	<path fill="#2C1505" d="M1496.167,742.964c0.071,5.294,0.333,10.84,0.92,16.052c0.111,0.994,0.216,1.963,0.313,2.909
		c4.83,1.114,7.853,1.81,7.853,1.81S1501.772,754.868,1496.167,742.964"/>
	<path fill="#6A4A24" d="M1755.53,785.427c-12.448,0-23.389,2.918-23.847,3.015c-0.443,0.091-17.785,7.926-28.628,12.835
		l-4.456,6.25c3.019,1.693,7.454,4.085,12.455,6.473c11.901-1.625,20.667-4.763,22.451-5.087c2.249-0.409,4.447-0.604,6.592-0.604
		c8.919,0,16.917,3.359,23.835,8.573c2.173-1.029,3.413-1.778,3.413-1.778l24.234-18.705c0,0-2.982-4.066-20.212-8.996
		C1766.267,785.943,1760.766,785.427,1755.53,785.427"/>
	<path fill="#C41620" d="M1657.801,805.107c5.642,13.132,7.479,25.837,7.479,25.837s4.73,42.688-17.51,104.645
		c-16.442,45.805-40.505,63.562-40.505,63.562s-0.612,0.509-1.711,1.38c9.322,7.066,18.053,11.809,22.099,12.108
		c0.229,0.017,0.457,0.025,0.684,0.025c3.78,0,7.22-2.299,10.676-4.597c3.455-2.298,6.927-4.597,10.771-4.597
		c1.222,0,2.48,0.231,3.789,0.77c9.792,4.025,22.047,18.854,36.708,19.596c0.177,0.009,0.358,0.014,0.543,0.014
		c15.023,0,51.86-29.962,75.802-74.113c24.236-44.691,30.972-69.438,24.743-90.871c-3.86-13.29-13.438-31.434-27.437-41.983
		c-4.775,2.262-14.062,5.878-24.607,5.878c-0.159,0-0.317,0-0.478-0.002c-7.717-0.081-18.691-4.413-27.793-8.758
		c-4.236,0.579-8.87,0.965-13.729,0.965c-1.134,0-2.278-0.021-3.434-0.065l-4.56,13.119l-4.439-1.541l4.138-11.905
		c-0.918-0.089-1.839-0.194-2.764-0.317C1677.45,813.082,1668.507,808.966,1657.801,805.107"/>
	<path fill="#AE1001" d="M1633.689,799.471c-15.653,0-37.813,7.157-49.543,18.457c-18.497,17.816-33.649,47.236-29.47,83.506
		c4.181,36.268,11.241,44.443,21.18,65.928c5.519,11.925,18.068,24.354,29.698,33.169c1.099-0.871,1.711-1.38,1.711-1.38
		s24.062-17.758,40.505-63.562c22.24-61.957,17.51-104.645,17.51-104.645s-1.838-12.705-7.479-25.837
		c-4.844-1.746-10.049-3.439-15.767-4.784C1639.59,799.748,1636.765,799.471,1633.689,799.471"/>
	<path fill="#510605" d="M1740.098,808.309c-2.145,0-4.343,0.194-6.592,0.604c-1.784,0.325-10.55,3.462-22.451,5.087
		c9.102,4.345,20.076,8.677,27.793,8.758c0.16,0.002,0.318,0.002,0.478,0.002c10.546,0,19.832-3.617,24.607-5.878
		C1757.015,811.668,1749.017,808.309,1740.098,808.309"/>
	<path fill="#6A4A24" d="M1713.822,786.174l-10.417,1.354l-13.43,24.326l-0.944,2.718c1.636,0.159,3.258,0.266,4.861,0.328
		l0.522-1.502l4.185-5.87c-2.562-1.437-4.104-2.371-4.104-2.371s3.6-1.633,8.561-3.879L1713.822,786.174"/>
	<path fill="#2C1505" d="M1703.056,801.277c-4.961,2.246-8.561,3.879-8.561,3.879s1.542,0.934,4.104,2.371L1703.056,801.277"/>
	<path fill="#510605" d="M1689.031,814.572l-4.138,11.905l4.439,1.541l4.56-13.119
		C1692.289,814.838,1690.667,814.73,1689.031,814.572"/>
	<path fill="#82B13E" d="M205.541,477.806c-2.638,0-5.45,0.211-8.45,0.672c-22.729,3.488-39.317,41.208-50.147,54.569
		c-10.829,13.362-30.575,29.191-58.769,48c-28.197,18.81-101.26,52.794-85.17,120.82c16.091,68.025,65.245,72.675,86.091,76.191
		c30.097,15.744,66.523,21.85,66.523,21.85s33.91-4.035,45.512-10.295c11.387-6.142,48.527-34.536,51.447-88.342
		c-1.681-1.561-3.281-3.406-4.562-5.555c-5.119-8.594-27.083-29.472-18.782-50.723c3.825-9.791,10.215-17.177,17.158-22.328
		c-2.856-16.62-5.491-29.839-5.064-39.985c0.944-22.379,8.762-65.097,1.652-76.73c0,0-4.455-17.813-21.584-25.097l-6.004,13.982
		l-4.481-1.745l2.268-6.122c0,0,1.416-3.406,3.166-7.835C213.121,478.291,209.532,477.806,205.541,477.806"/>
	<path fill="#6A4A24" d="M226.852,445.645l-4.972,3.212c0,0,1.273,11.815-1.592,19.86c-1.21,3.397-2.667,7.18-3.945,10.417
		c1.796,0.47,3.477,1.05,5.052,1.72l3.908-9.102c0,0,0.231-0.442,0.592-1.171c-1.618-0.818-3.304-1.683-5.058-2.593l9.063-7.574
		c0.061-0.291,0.109-0.568,0.143-0.83C230.567,455.477,226.852,445.645,226.852,445.645"/>
	<path fill="#363309" d="M216.344,479.133c-1.75,4.429-3.166,7.835-3.166,7.835l-2.268,6.122l4.481,1.745l6.004-13.982
		C219.82,480.183,218.14,479.603,216.344,479.133"/>
	<path fill="#6A4A24" d="M268.95,443.131c-15.152,0.001-32.313,11.652-32.313,11.652l-6.736,5.629
		c-0.675,3.204-2.923,7.979-4.005,10.167c26.123,13.207,35.095,14.693,41.75,14.693c1.905,0,3.62-0.122,5.493-0.126
		c8.819-0.019,26.284-10.841,26.284-10.841l13.101-17.997c0,0-27.807-12.911-43.077-13.173
		C269.28,443.133,269.116,443.131,268.95,443.131"/>
	<path fill="#2C1505" d="M229.9,460.413l-9.063,7.574c1.754,0.911,3.44,1.775,5.058,2.593
		C226.978,468.392,229.226,463.616,229.9,460.413"/>
	<path fill="#C41620" d="M277.056,659.368l-1.288-2.293l1.86-1.799l2.377,1.145l5.129-0.914l12.454-0.082l2.813,3.775l-14.896-1.621
		l-6.832,1.22L277.056,659.368 M277.604,613.037c-4.532,0-7.795,0.455-7.795,0.455c-6.408,0.177-15.292,3.145-23.417,9.173
		c3.444,20.039,7.208,45.021,6.314,75.523c-0.03,1.035-0.073,2.065-0.128,3.082c5.045,4.684,10.814,6.797,10.814,6.797
		s6.565,1.489,12.823,1.489c2.043,0,4.054-0.159,5.791-0.58c12.222-2.961,22.77-11.594,26.248-15.076
		c3.478-3.485,9.162-13.259,9.162-13.259s3.829-5.012,4.331-10.573c1.596-17.674-11.39-36.462-19.488-48.216
		C297.123,614.4,285.457,613.037,277.604,613.037"/>
	<path fill="#640F08" d="M246.392,622.665c-6.943,5.151-13.333,12.537-17.158,22.328c-8.301,21.251,13.663,42.129,18.782,50.723
		c1.28,2.148,2.88,3.994,4.562,5.555c0.055-1.017,0.098-2.047,0.128-3.082C253.601,667.685,249.836,642.703,246.392,622.665"/>
	<polyline fill="#510605" points="277.628,655.276 275.768,657.075 277.056,659.368 278.672,658.798 285.504,657.579 300.401,659.2 
		297.588,655.424 285.134,655.506 280.005,656.42 277.628,655.276 	"/>
	<path fill="#C41620" d="M404.054,954.891l2.216-8.682c0,0,2.554,0.057,3.496,1.936
		C410.708,950.024,404.054,954.891,404.054,954.891 M423.725,947.038l2.624-12.141c0,0,0.006,0,0.017,0
		c0.26,0,3.579,0.048,4.924,2.502C432.691,939.954,423.725,947.038,423.725,947.038 M388.45,935.682l0.173-12.418
		c0,0,0.562-0.122,1.355-0.122c1.176,0,2.861,0.268,3.982,1.599C395.839,926.967,388.45,935.682,388.45,935.682 M446.842,927.016
		l2.624-12.141c0,0,0.005,0,0.015,0c0.251,0,3.578,0.047,4.925,2.504C455.808,919.934,446.842,927.016,446.842,927.016
		 M421.325,920.167l2.216-8.682c0,0,2.555,0.057,3.496,1.936C427.978,915.301,421.325,920.167,421.325,920.167 M398.417,914.557
		l0.484-12.41c0,0,0.472-0.09,1.158-0.09c1.179,0,2.991,0.265,4.142,1.701C406.022,906.032,398.417,914.557,398.417,914.557
		 M441.506,899.227l2.622-12.141c0,0,0.005,0,0.015,0c0.252,0,3.579,0.047,4.926,2.504
		C450.472,892.145,441.506,899.227,441.506,899.227 M411.372,896.897l2.779-12.104c0,0,0,0,0,0c0.032,0,3.546,0.006,4.909,2.566
		C420.428,889.932,411.372,896.897,411.372,896.897 M390.207,887.594l-0.593-12.404c0,0,0.778-0.221,1.811-0.221
		c1.127,0,2.558,0.263,3.608,1.363C397.044,878.44,390.207,887.594,390.207,887.594 M397.366,859.627
		c-5.1,5.991-11.355,8.495-16.256,9.511c-14.214,24.739-7.16,66.608-0.723,82.575c0,0,4.526,14.212,17.722,14.212
		c2.315,0,4.897-0.438,7.768-1.466c34.069-12.203,57.001-44.742,57.001-44.742c8.273-15.727,10.935-28.925,9.665-39.266
		c-5.351-2.951-12.792-10.809-12.792-10.809l0.3,11.764c-13.624-4.787-22.053-21.301-22.053-21.301l-9.355,20.564l-9.161-18.369
		l-21.512,15.518L397.366,859.627"/>
	<path fill="#6A4A24" d="M430.207,829.135l-3.558,3.084c0,0,0.499,3.373-4.627,5.045c-5.127,1.672-19.203,6.598-27.718,11.547
		c-8.514,4.953-21.341,20.908-21.341,20.908s0.688,0.078,1.866,0.078c1.462,0,3.682-0.12,6.282-0.659
		c0.695-1.21,1.44-2.378,2.24-3.501c6.266-8.805,24.164-16.316,24.164-16.316s7.253-1.807,15.571-1.808
		c3.93,0,8.097,0.403,11.852,1.591c0,0,23.864,5.629,31.979,16.596c2.932,3.963,4.91,8.9,5.628,14.752
		c0.232,0.128,0.461,0.247,0.685,0.355c0,0,4.75-14.492-13.944-30.484C440.589,834.333,438.898,847.563,430.207,829.135"/>
	<path fill="#510605" d="M423.085,847.513c-8.318,0-15.571,1.808-15.571,1.808s-17.898,7.512-24.164,16.316
		c-0.8,1.123-1.545,2.291-2.24,3.501c4.901-1.016,11.157-3.52,16.256-9.511l0.604,18.191l21.512-15.518l9.161,18.369l9.355-20.564
		c0,0,8.429,16.514,22.053,21.301l-0.3-11.764c0,0,7.441,7.857,12.792,10.809c-0.718-5.852-2.696-10.789-5.628-14.752
		c-8.114-10.967-31.979-16.596-31.979-16.596C431.183,847.917,427.016,847.513,423.085,847.513"/>
	<path fill="#510605" d="M391.424,874.969c-1.032,0-1.811,0.221-1.811,0.221l0.593,12.404c0,0,6.837-9.154,4.826-11.262
		C393.982,875.232,392.552,874.969,391.424,874.969"/>
	<path fill="#510605" d="M414.151,884.793C414.15,884.793,414.15,884.793,414.151,884.793l-2.779,12.104
		c0,0,9.056-6.965,7.688-9.537C417.697,884.799,414.183,884.793,414.151,884.793"/>
	<path fill="#510605" d="M423.541,911.485l-2.216,8.682c0,0,6.653-4.865,5.712-6.746
		C426.096,911.542,423.541,911.485,423.541,911.485"/>
	<path fill="#510605" d="M406.271,946.209l-2.216,8.682c0,0,6.653-4.867,5.712-6.746
		C408.824,946.266,406.271,946.209,406.271,946.209"/>
	<path fill="#510605" d="M444.144,887.086c-0.01,0-0.015,0-0.015,0l-2.622,12.141c0,0,8.965-7.082,7.563-9.637
		C447.723,887.133,444.396,887.086,444.144,887.086"/>
	<path fill="#510605" d="M449.481,914.875c-0.01,0-0.015,0-0.015,0l-2.624,12.141c0,0,8.966-7.082,7.564-9.637
		C453.059,914.922,449.732,914.875,449.481,914.875"/>
	<path fill="#510605" d="M426.365,934.897c-0.011,0-0.017,0-0.017,0l-2.624,12.141c0,0,8.966-7.084,7.564-9.639
		C429.944,934.945,426.625,934.897,426.365,934.897"/>
	<path fill="#510605" d="M389.979,923.142c-0.793,0-1.355,0.122-1.355,0.122l-0.173,12.418c0,0,7.389-8.715,5.511-10.941
		C392.839,923.41,391.154,923.142,389.979,923.142"/>
	<path fill="#510605" d="M400.058,902.057c-0.686,0-1.158,0.09-1.158,0.09l-0.484,12.41c0,0,7.606-8.525,5.783-10.799
		C403.049,902.322,401.237,902.057,400.058,902.057"/>
	<path fill="#E3BF07" d="M1705.565,234.837c-0.98,0-1.952,0.023-2.909,0.065c0.01,4.671-0.626,9.757-2.102,15.283
		c-5.722,21.422-24.769,35.335-43.813,35.335c-0.783,0-1.566-0.024-2.35-0.071c-2.858,15.571,0.196,25.735,0.196,25.735
		c4.253,24.105,27.708,42.152,54.396,42.152c4.244,0,8.573-0.457,12.917-1.418c46.209-10.23,48.721-51.005,50.417-60.201
		c1.697-9.191-14.346-28.081-14.346-28.081s-5.949-3.702-13.24-8.633l-5.154,7.869l-2.666,3.581l-0.476,3.21l-2.991,1.872
		l-3.194-2.85c0,0-0.634-3.453,2.416-4.51c3.049-1.056,3.049-1.056,3.049-1.056l4.02-5.182l2.488-4.645
		c-6.109-4.196-12.762-9.018-17.499-13.146C1720,236.031,1712.58,234.837,1705.565,234.837"/>
	<path fill="#6A4A24" d="M1752.402,238.466l-3.344,2.069l-6.835,12.759c0.85,0.583,1.687,1.154,2.509,1.709l9.769-14.914
		L1752.402,238.466"/>
	<path fill="#5E3701" d="M1742.224,253.294l-2.488,4.645l-4.02,5.182c0,0,0,0-3.049,1.056c-3.05,1.057-2.416,4.51-2.416,4.51
		l3.194,2.85l2.991-1.872l0.476-3.21l2.666-3.581l5.154-7.869C1743.91,254.448,1743.073,253.877,1742.224,253.294"/>
	<path fill="#E3BF07" d="M90.23,944.825c-0.997,0-1.583,0.018-1.583,0.018s-5.335,1.885-12.123,3.996l2.363,7.221l0.914,3.486
		l1.784,1.92l-0.328,2.83l-3.408,0.578c0,0-2.498-1.342-1.626-3.799c0.872-2.455,0.872-2.455,0.872-2.455l-1.242-5.148l-1.674-3.912
		c-5.728,1.736-12.125,3.5-17.117,4.406c-11.845,2.146-20.948,22.258-20.948,22.258s-3.148,10.932,0.865,22.02
		c10.134,27.992,29.509,35.787,29.509,35.787c5.665,3.095,11.954,4.571,18.326,4.571c16.245,0,33.022-9.603,41.317-26.481
		c16.854-34.303-7.594-56.453-12.539-62.16C109.498,945.23,95.055,944.825,90.23,944.825"/>
	<path fill="#6A4A24" d="M72.045,935.155l-2.083,0.506l-0.382,3.15l4.599,10.748c0.796-0.241,1.579-0.482,2.344-0.721
		L72.045,935.155"/>
	<path fill="#5E3701" d="M76.523,948.838c-0.765,0.238-1.548,0.479-2.344,0.721l1.674,3.912l1.242,5.148c0,0,0,0-0.872,2.455
		c-0.872,2.457,1.626,3.799,1.626,3.799l3.408-0.578l0.328-2.83l-1.784-1.92l-0.914-3.486L76.523,948.838"/>
	<path fill="#E3BF07" d="M1666.092,188.563c-7.599,0-16.191,1.968-16.191,1.968s-4.945,2.933-11.293,6.378l3.781,6.731l1.601,3.295
		l2.158,1.561l0.229,2.885l-3.28,1.249c0,0-2.754-0.843-2.37-3.466c0.385-2.621,0.385-2.621,0.385-2.621l-2.256-4.883l-2.443-3.57
		c-5.366,2.862-11.394,5.884-16.19,7.773c-11.38,4.48-16.48,26.325-16.48,26.325s-0.979,11.516,5.209,21.775
		c15.634,25.897,36.484,29.84,36.484,29.84c2.937,0.922,5.939,1.462,8.957,1.646c1.604-8.737,5.069-19.175,11.981-30.479
		c7.618-12.455,20.625-17.865,20.625-17.865s7.186-1.832,15.658-2.203c-0.054-27.047-21.716-40.182-26.881-44.2
		C1673.708,189.093,1670.034,188.563,1666.092,188.563"/>
	<path fill="#CA8F00" d="M1702.656,234.902c-8.473,0.372-15.658,2.203-15.658,2.203s-13.007,5.41-20.625,17.865
		c-6.912,11.304-10.378,21.742-11.981,30.479c0.783,0.047,1.566,0.071,2.35,0.071c19.045,0,38.092-13.913,43.813-35.335
		C1702.03,244.659,1702.666,239.574,1702.656,234.902"/>
	<path fill="#6A4A24" d="M1631.442,184.154l-1.977,0.917l0.24,3.218l6.706,9.802c0.747-0.398,1.479-0.792,2.195-1.182
		L1631.442,184.154"/>
	<path fill="#5E3701" d="M1638.607,196.909c-0.716,0.389-1.448,0.783-2.195,1.182l2.443,3.57l2.256,4.883c0,0,0,0-0.385,2.621
		c-0.384,2.623,2.37,3.466,2.37,3.466l3.28-1.249l-0.229-2.885l-2.158-1.561l-1.601-3.295L1638.607,196.909"/>
	<path fill="#C41620" d="M1479.758,119.242l-5.14-7.398c0,0,1.334-1.473,3.049-1.473c0.234,0,0.476,0.027,0.723,0.09
		C1480.439,110.983,1479.758,119.242,1479.758,119.242 M1454.888,118.457l-9.323-8.306c0,0,1.687-3.084,4.582-3.084
		c0.018,0,0.035,0,0.054,0C1453.13,107.106,1454.888,118.457,1454.888,118.457 M1486.737,99.122l-7.5-9.984
		c0,0,1.849-2.199,4.3-2.199c0.277,0,0.562,0.028,0.854,0.091C1487.257,87.647,1486.737,99.122,1486.737,99.122 M1445.392,96.978
		l-9.11-8.537c0,0,1.721-2.97,4.556-2.97c0.052,0,0.104,0.001,0.156,0.003C1443.921,85.587,1445.392,96.978,1445.392,96.978
		 M1419.498,85.469l-9.819-7.715c0,0,1.512-3.222,4.437-3.364c0.019-0.001,0.036-0.001,0.055-0.001
		C1417.071,74.389,1419.498,85.469,1419.498,85.469 M1464.734,83.26l-5.14-7.398c0,0,1.334-1.473,3.05-1.473
		c0.235,0,0.477,0.028,0.724,0.09C1465.416,75.001,1464.734,83.26,1464.734,83.26 M1440.499,75.508l-7.369-10.079
		c0,0,1.851-2.145,4.276-2.145c0.294,0,0.596,0.031,0.904,0.102C1441.166,64.042,1440.499,75.508,1440.499,75.508 M1486.737,68.375
		l-7.5-9.984c0,0,1.849-2.198,4.3-2.198c0.277,0,0.562,0.028,0.854,0.091C1487.257,56.9,1486.737,68.375,1486.737,68.375
		 M1462.104,54.139l-7.5-9.984c0,0,1.849-2.197,4.301-2.198c0.278,0,0.563,0.028,0.855,0.091
		C1462.624,42.665,1462.104,54.139,1462.104,54.139 M1464.906,16.186c-5.076,0.829-10.195,1.056-10.195,1.056l9.139,7.516
		c-5.63,3.217-12.354,4.107-18.074,4.107c-7.086,0-12.629-1.367-12.629-1.367l9.471,20.644l-19.991-5.128l-2.365,26.562
		l-14.223-11.516c1.671,10.921-3.313,19.078-6.31,22.858c9.815,26.776,45.803,48.648,62.036,54.218c0,0,4.035,1.732,9.116,1.732
		c5.954,0,13.343-2.38,17.349-12.714c13.149-33.925,3.516-72.771,3.516-72.771C1484.404,32.612,1474.81,21.388,1464.906,16.186"/>
	<path fill="#6A4A24" d="M1447.999,4.23c-2.521,0-5.272,0.198-8.277,0.651c-19.357,2.914-17.794,9.781-26.078,9.781
		c-2.183,0-5.049-0.477-9.163-1.628v4.733c0,0,2.893,1.841,0.791,6.838c-2.105,4.997-7.63,18.935-9.471,28.666
		c-1.84,9.73,1.841,29.98,1.841,29.98s0.883-0.812,2.087-2.332c-0.567-1.549-1.047-3.112-1.431-4.691
		c-2.566-10.557,3.506-29.104,3.506-29.104s7.369-14.527,17.882-20.985c0,0,18.608-13.432,32.198-13.433
		c0.496,0,0.983,0.018,1.465,0.055c3.824,0.294,7.714,1.406,11.558,3.425c2.642-0.432,5.273-1.026,7.164-1.836
		C1472.07,14.349,1465.996,4.23,1447.999,4.23"/>
	<path fill="#510605" d="M1451.884,12.706c-13.59,0.001-32.198,13.433-32.198,13.433c-10.513,6.458-17.882,20.985-17.882,20.985
		s-6.072,18.547-3.506,29.104c0.384,1.58,0.863,3.143,1.431,4.691c2.996-3.78,7.98-11.938,6.31-22.858l14.223,11.516l2.365-26.562
		l19.991,5.128l-9.471-20.644c0,0,5.543,1.367,12.629,1.367c5.72,0,12.444-0.89,18.074-4.107l-9.139-7.516
		c0,0,5.119-0.227,10.195-1.056c-3.844-2.019-7.733-3.131-11.558-3.425C1452.867,12.724,1452.38,12.706,1451.884,12.706"/>
	<path fill="#510605" d="M1414.17,74.389c-0.019,0-0.036,0-0.055,0.001c-2.925,0.142-4.437,3.364-4.437,3.364l9.819,7.715
		C1419.498,85.469,1417.071,74.389,1414.17,74.389"/>
	<path fill="#510605" d="M1437.406,63.285c-2.426,0-4.276,2.145-4.276,2.145l7.369,10.079c0,0,0.667-11.466-2.188-12.121
		C1438.002,63.316,1437.7,63.285,1437.406,63.285"/>
	<path fill="#510605" d="M1462.645,74.388c-1.716,0-3.05,1.473-3.05,1.473l5.14,7.398c0,0,0.682-8.259-1.366-8.781
		C1463.121,74.416,1462.88,74.388,1462.645,74.388"/>
	<path fill="#510605" d="M1477.667,110.372c-1.715,0-3.049,1.473-3.049,1.473l5.14,7.398c0,0,0.682-8.259-1.368-8.78
		C1478.143,110.399,1477.901,110.372,1477.667,110.372"/>
	<path fill="#510605" d="M1458.904,41.958c-2.452,0-4.301,2.198-4.301,2.198l7.5,9.984c0,0,0.521-11.474-2.344-12.09
		C1459.468,41.986,1459.183,41.958,1458.904,41.958"/>
	<path fill="#510605" d="M1483.537,56.192c-2.451,0-4.3,2.198-4.3,2.198l7.5,9.984c0,0,0.52-11.475-2.347-12.092
		C1484.1,56.22,1483.814,56.192,1483.537,56.192"/>
	<path fill="#510605" d="M1483.537,86.939c-2.451,0-4.3,2.199-4.3,2.199l7.5,9.984c0,0,0.52-11.475-2.347-12.092
		C1484.1,86.967,1483.814,86.939,1483.537,86.939"/>
	<path fill="#510605" d="M1450.146,107.067c-2.896,0-4.582,3.084-4.582,3.084l9.323,8.306c0,0-1.758-11.351-4.688-11.39
		C1450.182,107.067,1450.164,107.067,1450.146,107.067"/>
	<path fill="#510605" d="M1440.837,85.472c-2.835,0-4.556,2.97-4.556,2.97l9.11,8.537c0,0-1.471-11.391-4.398-11.503
		C1440.94,85.473,1440.889,85.472,1440.837,85.472"/>
	<path fill="#E3BF07" d="M491.497,115.328c-9.259,0-19.185,4.954-19.185,4.954c-8.092,3.866-19.109,16.955-18.321,34.147
		c0.788,17.193,17.103,24.917,23.266,29.274c3.908,2.762,10.741,3.527,15.219,3.717c1.21-9.217,6.142-17.545,13.972-22.174
		c0,0,6.437-4.907,18.188-6.003c0.662-3.524,1.069-7.255,1.069-7.255s1.103-4.628-0.255-8.615
		c-4.314-12.674-10.626-21.939-28.207-27.269C495.427,115.554,493.478,115.328,491.497,115.328"/>
	<path fill="#E3BF07" d="M529.321,159.028c-1.644,0-3.206,0.078-4.685,0.215c-0.336,1.79-0.738,3.526-1.186,4.693
		c-1.329,3.466-5.958,12.649-13.475,18.434c-4.344,3.344-13.112,5.078-13.112,5.078s-0.647,0.029-1.722,0.029
		c-0.719,0-1.628-0.013-2.664-0.057c-1.024,7.797,0.614,16.229,5.413,23.598c9.172,14.083,21.16,17.162,30.46,17.162
		c6.2,0,11.207-1.369,13.385-1.759c5.446-0.972,12.573-13.792,12.573-13.792s0.813-4.066,2.027-9.132l-5.433-1.218l-2.539-0.731
		l-1.876,0.403l-1.661-1.267l0.914-2.362c0,0,0.626-0.376,1.391-0.376c0.524,0,1.114,0.177,1.611,0.776
		c1.219,1.47,1.219,1.47,1.219,1.47l3.708,1.148l3.091,0.412c1.053-4.259,2.34-8.947,3.642-12.431
		c3.086-8.264-6.166-21.535-6.166-21.535s-5.703-6.08-14.19-7.708C536.161,159.333,532.58,159.028,529.321,159.028"/>
	<path fill="#CA8F00" d="M524.636,159.243c-11.75,1.097-18.188,6.003-18.188,6.003c-7.83,4.629-12.761,12.957-13.972,22.174
		c1.036,0.044,1.945,0.057,2.664,0.057c1.075,0,1.722-0.029,1.722-0.029s8.768-1.734,13.112-5.078
		c7.516-5.785,12.146-14.968,13.475-18.434C523.898,162.769,524.3,161.033,524.636,159.243"/>
	<path fill="#6A4A24" d="M556.76,201.752c-0.146,0.591-0.289,1.175-0.425,1.746l10.296,2.309l0.463-1.501l-1.842-1.422
		L556.76,201.752"/>
	<path fill="#5E3701" d="M547.131,197.946c-0.764,0-1.391,0.376-1.391,0.376l-0.914,2.362l1.661,1.267l1.876-0.403l2.539,0.731
		l5.433,1.218c0.137-0.57,0.279-1.154,0.425-1.746l-3.091-0.412l-3.708-1.148c0,0,0,0-1.219-1.47
		C548.245,198.124,547.655,197.946,547.131,197.946"/>
	<path fill="#6A4A24" d="M335.829,103.195c-19.722,0-38.061,5.866-38.763,6.049c-0.91,0.235-51.574,26.272-51.574,26.272
		s12.387,6.699,27.245,12.689c0.33-13.036,0.225-22.605,0.225-22.605l4.269,0.64c0,0-0.662,6.325-1.275,13.617
		c-0.182,2.162-0.382,5.459-0.595,9.388c11.335,4.412,23.733,8.182,33.007,8.182c0.414,0,0.824-0.007,1.226-0.023
		c22.072-0.844,39.877-12.822,39.877-12.822l33.066-28.191c0,0-4.506-5.56-29.278-11.361
		C347.608,103.708,341.658,103.195,335.829,103.195"/>
	<path fill="#6A4A24" d="M1635.552,634.574c-9.948,0-18.691,2.333-19.056,2.409c-0.52,0.108-29.722,13.36-29.722,13.36
		s23.013,13.935,35.446,14.065c0.128,0.001,0.255,0.002,0.382,0.002c12.264,0,22.394-6.12,22.394-6.12l19.366-14.947
		c0,0-2.383-3.25-16.152-7.19C1644.133,634.986,1639.735,634.574,1635.552,634.574"/>
	<path fill="#6A4A24" d="M1701.101,95.564c0,0,5.57,26.32,13.979,35.48c8.408,9.161,20.038,12.433,20.038,12.433l24.149,3.908
		c0,0,0.742-3.959-5.8-16.702c-6.542-12.741-21.86-22.268-22.293-22.571C1730.74,107.807,1701.101,95.564,1701.101,95.564"/>
	<path fill="#6A4A24" d="M264.224,866.653c0,0-26.507,4.605-35.969,12.67c-9.463,8.068-13.159,19.572-13.159,19.572l-4.79,23.988
		c0,0,0.201,0.045,0.662,0.045c1.578,0,6.202-0.531,16.242-5.229c12.972-6.072,23.053-21.029,23.372-21.453
		C250.903,895.825,264.224,866.653,264.224,866.653"/>
	<path fill="#6A4A24" d="M222.297,12.152c0,0-3.954,1.854-11.019,15.677c-7.065,13.822-5.746,33.326-5.739,33.9
		c0.007,0.574,8.005,34.397,8.005,34.397s19.623-21.566,22.357-34.76c2.733-13.197-1.751-25.498-1.751-25.498L222.297,12.152"/>
	<path fill="#C41620" d="M344.572,288.017c-3.136,0-6.144,0.544-8.545,2.02c-1.491,0.916-3.198,1.872-5.009,2.831
		c0.127,7.813-0.039,12.834-0.04,12.834l-2.01,1.656c0,0-0.566-8.185-0.341-11.818c0.027-0.431,0.044-0.92,0.054-1.463
		c-3.861,1.958-7.975,3.86-11.398,5.389c2.584,10.978,5.051,32.146-17.023,48.556c3.855,8.357,11.052,16.708,24.436,22.11
		c5.312,2.145,10.775,3.141,16.099,3.141c16.477,0,31.619-9.547,36.798-24.17c0,0,8.271-16.783-1.697-41.519
		c-3.949-9.8-12.584-15.211-12.584-15.211S353.435,288.017,344.572,288.017"/>
	<path fill="#6A4A24" d="M273.992,176.008c-0.069,1.277-0.139,2.524-0.208,3.73c11.738,7.728,29.601,21.253,34.047,27.383
		c5.682,7.828,11.846,18.311,15.08,33.766c3.383,16.172,5.941,43.402,5.771,53.189c0.792-0.401,1.573-0.805,2.336-1.208
		c-0.218-13.42-1.3-35.074-5.562-53.658c-2-8.722-4.702-16.767-8.342-22.968C308.01,200.746,288.789,185.891,273.992,176.008
		 M254.3,163.988l-1.651,5.345c0,0,4.46,1.123,13.203,5.596c1.384,0.708,3.24,1.803,5.407,3.176
		c0.098-1.236,0.191-2.476,0.278-3.719c-7.631-4.984-13.757-8.473-16.151-9.803C254.681,164.191,254.3,163.988,254.3,163.988"/>
	<path fill="#510605" d="M331.017,292.867c-0.763,0.403-1.544,0.807-2.336,1.208c-0.01,0.543-0.027,1.032-0.054,1.463
		c-0.226,3.634,0.341,11.818,0.341,11.818l2.01-1.656C330.978,305.702,331.144,300.68,331.017,292.867"/>
	<path fill="#6A4A24" d="M1532.108,412.393c0,0-35.248,9.895-46.942,22.125c-11.696,12.23-15.111,28.312-15.111,28.312
		l-3.169,33.141c0,0,0.073,0.009,0.23,0.009c1.188,0,7.158-0.515,21.938-9.365c7.232-4.33,13.503-10.837,18.321-16.876
		c-3.801-13.39-4.234-29.048-4.285-32.502c-0.005-0.455-0.005-0.698-0.005-0.698l3.091,0.605c0,0-0.63,2.512-0.741,8.039
		c-0.082,4.099,1.285,15.589,2.964,23.254c5.709-7.387,9.132-13.764,9.331-14.093
		C1518.105,453.729,1532.108,412.393,1532.108,412.393"/>
	<path fill="#C41620" d="M1505.894,545.082c-5.557,0-12.358,5.097-12.358,5.097s-4.049,4.065-4.971,9.941
		c-2.324,14.834,4.344,22.988,4.344,22.988c3.766,5.902,10.626,9.201,17.855,9.201c4.705,0,9.567-1.398,13.831-4.387
		c15.785-11.064,10.365-26.797,9.565-30.521c-0.797-3.722-9.781-8.324-9.781-8.324s-6.168-1.016-11.635-2.363
		c0.074,0.297,0.146,0.563,0.216,0.796c0.585,1.964,1.314,6.525,1.314,6.525l-1.313-0.652c0,0-0.729-2.733-1.651-7.035
		c-1.116-0.295-2.174-0.603-3.108-0.917C1507.474,545.188,1506.697,545.082,1505.894,545.082"/>
	<path fill="#6A4A24" d="M1517.126,487.765c-3.44,4.806-6.4,9.917-7.926,14.79c-1.21,3.864-1.668,8.619-1.657,13.657
		c0.023,10.734,2.182,22.748,3.767,30.136c0.47,0.125,0.949,0.247,1.435,0.366c-1.337-5.346-3.395-20.606-3.592-29.907
		c-0.19-8.888,1.858-15.419,3.979-20.434c0.719-1.7,2.642-4.48,5.032-7.55C1517.81,488.472,1517.464,488.119,1517.126,487.765
		 M1537.013,465.914c0,0-0.182,0.16-0.521,0.464c-2.22,2.006-11.128,10.267-18.382,20.037c0.343,0.375,0.696,0.752,1.062,1.129
		c4.543-5.685,10.298-11.971,12.894-14.161c4.228-3.564,6.531-4.747,6.531-4.747L1537.013,465.914"/>
	<path fill="#510605" d="M1511.31,546.348c0.923,4.302,1.651,7.035,1.651,7.035l1.313,0.652c0,0-0.729-4.561-1.314-6.525
		c-0.069-0.233-0.142-0.499-0.216-0.796C1512.259,546.595,1511.779,546.473,1511.31,546.348"/>
	<path fill="#C41620" d="M1567.356,498.521c-4.104,0-10.112,2.379-10.112,2.379s-4.832,3.965-9.45,7.184
		c0.271,0.14,0.52,0.261,0.74,0.363c1.862,0.856,5.77,3.318,5.77,3.318l-1.356,0.556c0,0-2.534-1.255-6.376-3.4
		c-0.957,0.644-1.886,1.235-2.737,1.73c-5.249,3.053-6.112,14.154-6.112,14.154s0.386,5.725,4.193,10.293
		c9.613,11.534,20.142,11.903,20.142,11.903c0.935,0.144,1.87,0.213,2.803,0.213c10.459,0,20.396-8.795,21.719-20.848
		c2.1-19.164-13.3-25.469-16.624-27.327C1569.289,498.67,1568.383,498.521,1567.356,498.521"/>
	<path fill="#6A4A24" d="M1519.173,487.544c-0.345,0.431-0.682,0.857-1.01,1.279c1.032,1.027,2.131,2.044,3.276,3.045
		c8.082,7.065,18.534,13.37,25.132,17.053c0.403-0.271,0.812-0.551,1.223-0.837c-4.899-2.522-17.725-11.044-24.845-17.032
		C1521.562,489.885,1520.308,488.712,1519.173,487.544 M1508.399,468.436c-0.334,0.431-0.675,0.865-1.023,1.303
		c1.239,4.366,2.837,8.49,4.896,11.872c1.251,2.056,2.914,4.121,4.854,6.154c0.324-0.453,0.652-0.903,0.984-1.35
		c-3.798-4.171-6.161-8.255-7.892-11.834C1509.606,473.313,1508.984,471.107,1508.399,468.436"/>
	<path fill="#2C1505" d="M1503.086,436.538c0,0,0,0.244,0.005,0.698c0.051,3.455,0.484,19.113,4.285,32.502
		c0.349-0.438,0.689-0.872,1.023-1.303c-1.679-7.665-3.046-19.156-2.964-23.254c0.111-5.526,0.741-8.039,0.741-8.039
		L1503.086,436.538"/>
	<path fill="#2C1505" d="M1518.11,486.415c-0.332,0.447-0.66,0.897-0.984,1.35c0.338,0.354,0.684,0.707,1.037,1.058
		c0.328-0.422,0.665-0.849,1.01-1.279C1518.807,487.167,1518.453,486.791,1518.11,486.415"/>
	<path fill="#510605" d="M1547.794,508.084c-0.41,0.286-0.819,0.566-1.223,0.837c3.842,2.145,6.376,3.4,6.376,3.4l1.356-0.556
		c0,0-3.907-2.461-5.77-3.318C1548.313,508.346,1548.065,508.224,1547.794,508.084"/>
	<path fill="#C41620" d="M265.412,272.887c-9.939,0-22.106,9.576-22.106,9.576s-7.02,7.391-8.405,17.864
		c-3.501,26.439,8.683,40.637,8.683,40.637c6.755,10.051,18.62,15.595,31.093,15.595c8.668,0,17.631-2.679,25.374-8.384
		c0.069-0.051,0.14-0.104,0.208-0.154c-5.291-11.47-4.289-22.956-4.354-26.868c-0.114-6.761,13.591-18.325,13.591-18.325
		s3.301-1.36,7.786-3.362c-0.613-2.603-1.232-4.633-1.533-5.891c-1.571-6.577-17.72-14.37-17.72-14.37s-10.993-1.542-20.757-3.702
		c0.145,0.523,0.284,0.993,0.417,1.403c1.121,3.464,2.606,11.53,2.606,11.53l-2.356-1.103c-0.001,0-1.411-4.822-3.231-12.421
		c-1.994-0.478-3.884-0.979-5.557-1.496C267.962,273.049,266.707,272.887,265.412,272.887"/>
	<path fill="#970204" d="M317.282,299.464c-4.485,2.002-7.786,3.362-7.786,3.362s-13.705,11.564-13.591,18.325
		c0.065,3.913-0.937,15.398,4.354,26.868C322.333,331.61,319.867,310.442,317.282,299.464"/>
	<path fill="#6A4A24" d="M272.737,148.207c-0.2,7.905-0.56,17.087-1.201,26.18c0.802,0.523,1.623,1.065,2.456,1.622
		c0.479-8.802,0.949-19.012,1.369-26.762C274.479,148.903,273.604,148.556,272.737,148.207"/>
	<path fill="#2C1505" d="M272.962,125.601c0,0,0.105,9.569-0.225,22.605c0.867,0.349,1.742,0.696,2.624,1.04
		c0.213-3.929,0.413-7.227,0.595-9.388c0.613-7.292,1.275-13.617,1.275-13.617L272.962,125.601"/>
	<path fill="#6A4A24" d="M271.258,178.105c-0.534,6.712-1.231,13.276-2.142,19.13c-1.106,7.105-2.6,15.376-2.369,24.322
		c0.493,19.06,4.833,40.303,7.959,53.355c0.839,0.201,1.698,0.398,2.565,0.59c-2.603-9.437-6.896-36.448-7.643-52.955
		c-0.711-15.773,1.795-17.307,3.237-30.253c0.3-2.691,0.609-7.217,0.918-12.557C272.905,179.159,272.06,178.613,271.258,178.105"/>
	<path fill="#2C1505" d="M271.536,174.386c-0.087,1.243-0.18,2.482-0.278,3.719c0.802,0.508,1.647,1.054,2.525,1.633
		c0.069-1.206,0.139-2.453,0.208-3.73C273.159,175.452,272.338,174.91,271.536,174.386"/>
	<path fill="#510605" d="M274.707,274.912c1.821,7.599,3.23,12.421,3.231,12.421l2.356,1.103c0,0-1.485-8.066-2.606-11.53
		c-0.133-0.411-0.272-0.88-0.417-1.403C276.405,275.31,275.545,275.113,274.707,274.912"/>
	<path fill="#E3BF07" d="M1404.559,292.003c-7.637,0-15.769,3.94-15.769,3.94c-6.776,3.141-16.079,13.932-15.592,28.258
		c0.489,14.326,14,20.918,19.09,24.607c4.223,3.059,12.647,3.32,15.398,3.32c0.566,0,0.893-0.011,0.893-0.011s7.317-1.357,10.97-4.1
		c6.316-4.743,10.261-12.346,11.402-15.22c0.477-1.2,0.903-3.127,1.238-4.967c-5.424-0.023-10.668-1.89-14.58-5.594
		c0,0-8.912-6.647-10.325-22.434c-0.253-2.833,0.246-5.45,0.868-7.465C1406.99,292.104,1405.781,292.003,1404.559,292.003"/>
	<path fill="#C41620" d="M1441.14,279.337c0,0-3.003,0.245-6.785,0.41l0.234,4.038l-0.003,1.919l0.658,1.23l-0.552,1.414
		l-1.834-0.167c0,0-1.104-1.03-0.322-2.177c0.785-1.145,0.785-1.145,0.785-1.145l0.06-2.818l-0.33-2.242
		c-1.546,0.056-3.173,0.094-4.747,0.094c-1.668,0-3.277-0.043-4.663-0.152c-0.173-0.014-0.345-0.021-0.519-0.021
		c-6.266,0-13.291,8.63-13.291,8.63s-0.929,1.555-1.679,3.987c0.489,0.099,0.97,0.221,1.439,0.37
		c14.591,4.609,19.756,12.388,23.226,22.985c1.093,3.333,0.128,7.178,0.128,7.178s-0.289,2.394-0.756,4.96c0.034,0,0.067,0,0.102,0
		c6.825,0,13.922-2.917,18.999-8.765c13.339-15.368,3.763-30.093,1.996-33.704C1451.518,281.752,1441.14,279.337,1441.14,279.337"/>
	<path fill="#AE1001" d="M1408.152,292.338c-0.622,2.015-1.121,4.632-0.868,7.465c1.413,15.786,10.325,22.434,10.325,22.434
		c3.912,3.704,9.156,5.571,14.58,5.594c0.467-2.566,0.756-4.96,0.756-4.96s0.965-3.844-0.128-7.178
		c-3.47-10.597-8.635-18.375-23.226-22.985C1409.122,292.559,1408.642,292.437,1408.152,292.338"/>
	<path fill="#6A4A24" d="M1432.769,272.071l-0.624,1.57l0.906,6.158c0.442-0.016,0.878-0.034,1.304-0.052l-0.444-7.653
		L1432.769,272.071"/>
	<path fill="#510605" d="M1434.354,279.747c-0.426,0.019-0.861,0.036-1.304,0.052l0.33,2.242l-0.06,2.818c0,0,0,0-0.785,1.145
		c-0.782,1.147,0.322,2.177,0.322,2.177l1.834,0.167l0.552-1.414l-0.658-1.23l0.003-1.919L1434.354,279.747"/>
	<path fill="#6A4A24" d="M452.424,573.952c-0.128,0-0.254-0.004-0.378-0.012c-2.934-0.187-5.938-2.439-8.256-4.781
		c3.07-2.4,6.062-3.733,8.426-3.733c0.129,0,0.255,0.004,0.38,0.012c2.93,0.187,5.93,2.437,8.25,4.781
		C457.777,572.622,454.786,573.952,452.424,573.952 M469.303,559.088c-0.129,0-0.255-0.004-0.38-0.012
		c-2.932-0.187-5.938-2.438-8.256-4.778c3.075-2.403,6.067-3.735,8.43-3.735c0.127,0,0.253,0.004,0.376,0.012
		c2.932,0.185,5.931,2.437,8.251,4.781C474.655,557.758,471.667,559.088,469.303,559.088 M435.297,559.512
		c-2.034-2.603-3.888-5.863-3.696-8.788c0.152-2.421,1.876-5.369,4.793-8.263c2.064,2.673,3.888,5.967,3.712,8.785
		C439.948,553.667,438.221,556.625,435.297,559.512 M452.176,544.647c-2.034-2.601-3.889-5.86-3.698-8.787
		c0.153-2.42,1.877-5.368,4.792-8.261c2.063,2.675,3.889,5.966,3.715,8.784C456.829,538.802,455.102,541.759,452.176,544.647
		 M453.93,517.28c0,0-1.974,1.221-4.388,3.346c-3.647,3.211-8.298,8.487-8.695,14.749c-0.015,0.19,0.042,0.372,0.038,0.559
		c-2.081-2.348-3.834-3.792-3.834-3.792s-1.973,1.222-4.388,3.348c-3.646,3.211-8.298,8.489-8.695,14.748
		c-0.376,5.942,3.14,11.419,6.245,15.081l-27.642,24.34l-6.81-7.732l-11.288,30.946l32.123-7.287l-6.812-7.736l27.64-24.34
		c3.241,3.531,8.214,7.686,14.135,8.062c0.29,0.018,0.581,0.027,0.869,0.027c5.932,0,11.385-3.736,14.861-6.799
		c2.412-2.124,3.873-3.92,3.873-3.92s-1.211-1.922-3.277-4.284c0.19,0.022,0.363,0.101,0.554,0.113
		c0.291,0.018,0.581,0.027,0.869,0.027c5.929,0,11.384-3.735,14.861-6.797c2.413-2.124,3.873-3.922,3.873-3.922
		s-7.684-12.414-18.082-13.071c-0.275-0.018-0.55-0.026-0.823-0.026c-2.566,0-5.023,0.746-7.301,1.784
		c1.462-2.35,2.594-4.967,2.776-7.829C465.27,526.468,453.93,517.28,453.93,517.28"/>
	<path fill="#6A4A24" d="M69.404,255.348c-2.216,0-4.531-0.371-6.024-1.578c-1.434-1.153-2.509-3.512-3.028-6.587
		c0.31-0.013,0.623-0.021,0.938-0.021c2.292,0,4.665,0.381,6.134,1.561c1.432,1.156,2.51,3.521,3.023,6.598
		C70.104,255.339,69.756,255.348,69.404,255.348 M80.145,254.274c-0.154-3.114,0.391-5.656,1.544-7.089
		c1.397-1.735,4.106-2.611,6.573-3.026c0.156,3.115-0.389,5.654-1.541,7.086C85.321,252.983,82.611,253.861,80.145,254.274
		 M67.562,238.378c-2.213,0-4.524-0.371-6.018-1.577c-1.434-1.153-2.508-3.512-3.028-6.586c0.309-0.013,0.621-0.021,0.935-0.021
		c2.294,0,4.667,0.38,6.138,1.559c1.431,1.156,2.51,3.521,3.022,6.598C68.267,238.369,67.916,238.378,67.562,238.378 M78.31,237.307
		c-0.153-3.118,0.391-5.657,1.543-7.09c1.397-1.738,4.105-2.613,6.574-3.027c0.156,3.116-0.389,5.652-1.542,7.086
		C83.487,236.013,80.775,236.893,78.31,237.307 M90.401,221.06c-2.783,0-10.991,0.449-15.069,5.519
		c-1.365,1.696-2.073,3.742-2.462,5.807c-0.817-1.935-1.946-3.78-3.641-5.147c-2.783-2.238-6.481-2.852-9.701-2.852
		c-3.915,0-7.123,0.907-7.123,0.907s-0.106,1.759,0.156,4.186c0.396,3.667,1.634,8.858,5.343,11.844
		c0.112,0.092,0.25,0.136,0.364,0.221c-2.366,0.264-4.029,0.719-4.029,0.719s-0.105,1.758,0.157,4.185
		c0.397,3.666,1.635,8.86,5.344,11.843c2.77,2.229,6.415,2.837,9.611,2.837c0.867,0,1.7-0.044,2.474-0.114l3.005,27.79l-7.774,0.84
		l14.255,20.536l9.53-23.109l-7.777,0.841l-3.006-27.788c3.607-0.466,8.359-1.733,11.183-5.24c2.983-3.713,3.077-9.051,2.68-12.717
		c-0.262-2.425-0.738-4.117-0.738-4.117s-0.303-0.016-0.829-0.016c-0.729,0-1.886,0.03-3.262,0.174
		c0.097-0.108,0.223-0.181,0.313-0.294c2.982-3.712,3.077-9.052,2.68-12.717c-0.261-2.425-0.737-4.118-0.737-4.118
		S91.001,221.06,90.401,221.06"/>
	<path fill="#6A4A24" d="M1370.562,471.351c-2.684-1.189-5.441-2.949-6.476-5.173c-0.881-1.914-0.785-4.888,0.254-8.308
		c2.631,1.146,5.396,2.868,6.463,5.185C1371.688,464.967,1371.591,467.933,1370.562,471.351 M1345.448,461.122
		c-1.666,0-3.447-0.367-5.062-0.856c1.423-3.276,3.272-5.603,5.184-6.487c0.954-0.441,2.062-0.62,3.228-0.62
		c1.667,0,3.449,0.366,5.062,0.853c-1.429,3.276-3.278,5.605-5.188,6.49C1347.717,460.943,1346.611,461.122,1345.448,461.122
		 M1377.306,453.006c-2.685-1.187-5.441-2.95-6.474-5.175c-0.882-1.915-0.786-4.889,0.251-8.308c2.633,1.147,5.399,2.87,6.464,5.185
		C1378.433,446.621,1378.337,449.588,1377.306,453.006 M1352.193,442.776c-1.666,0-3.448-0.367-5.064-0.855
		c1.423-3.275,3.274-5.604,5.185-6.487c0.953-0.441,2.061-0.62,3.225-0.62c1.666,0,3.449,0.366,5.062,0.855
		c-1.425,3.273-3.276,5.605-5.189,6.489C1354.46,442.597,1353.354,442.776,1352.193,442.776 M1387.827,377.708l-21.529,18.868
		l8.409,3.09l-11.046,30.042c-2.336-0.805-5.23-1.524-8.176-1.524c-2.018,0-4.059,0.337-5.961,1.217
		c-4.95,2.294-7.76,7.723-9.216,11.687c-0.964,2.622-1.337,4.599-1.337,4.599s1.721,0.967,4.278,1.917
		c-0.154,0.061-0.32,0.072-0.47,0.143c-4.948,2.292-7.76,7.724-9.216,11.687c-0.965,2.621-1.338,4.6-1.338,4.6
		s6.501,3.722,13.239,3.722c2.032,0,4.086-0.338,5.99-1.22c2.265-1.047,4.031-2.787,5.481-4.707c-0.146,2.4,0.073,4.869,1.118,7.132
		c3.807,8.223,16.275,10.549,16.275,10.549s1.003-1.75,1.967-4.375c1.458-3.963,2.829-9.92,0.537-14.869
		c-0.065-0.152-0.185-0.267-0.259-0.412c2.562,0.933,4.5,1.31,4.5,1.31s1.002-1.75,1.966-4.375
		c1.456-3.963,2.827-9.922,0.539-14.869c-2.173-4.696-7.127-7.426-11.016-8.938l11.043-30.042l8.405,3.089L1387.827,377.708"/>
</g>
</svg>
