<?xml version="1.0" encoding="utf-8"?>
<!DOCTYPE svg PUBLIC "-//W3C//DTD SVG 1.1//EN" "http://www.w3.org/Graphics/SVG/1.1/DTD/svg11.dtd">
<svg version="1.1" id="donate_buttons" xmlns="http://www.w3.org/2000/svg" xmlns:xlink="http://www.w3.org/1999/xlink" x="0px" y="0px"
	 width="300px" height="100px" viewBox="0 0 300 100" enable-background="new 0 0 300 100" xml:space="preserve">
<g>
	<g>
		<g>
			<g>
				<path fill="#A60821" d="M46.43,45.862c-4.353,1.438-8.363,3.259-12.991,0.896c-2.85-1.456-5.394-2.273-7.532-2.884
					c-3.528-1.008-8.093,0.139-8.093,0.139s-4.971,2.338-7.671,5.295c-5.503,6.029-4.488,17.816,0,25.236
					c1.805,2.982,2.408,4.355,6.758,9.578c0,0,12.428,12.98,18.273,10.582c7.671-3.148,9.899,0.048,13.103,0.053
					c3.22,0.003,8.936-4.743,8.936-4.743s4.589-3.387,7.725-12.122c4.241-11.816,3.339-19.958,3.339-19.958
					s-0.904-6.249-4.264-9.049C60.23,45.732,54.289,43.263,46.43,45.862"/>
				<path fill="#614A2A" d="M38.42,35.112l-2.22,1.104c0,0-0.14,1.528-0.172,3.516c0.73,1.502,1.197,2.692,1.197,2.692
					s-0.467-0.107-1.174-0.271c0.027,0.694,0.074,1.394,0.149,2.064c0.165,1.468,0.246,2.659,0.284,3.554
					c0.543,0.087,1.081,0.127,1.614,0.127c0.101,0,0.201-0.001,0.302-0.004c-0.134-1.768-0.668-6.037-0.585-7.401L38.42,35.112"/>
				<path fill="#3F0205" d="M36.484,47.771c0.055,1.292,0.02,1.966,0.02,1.966s1.815-0.553,1.917-1.105
					c0.018-0.097,0.008-0.36-0.021-0.737c-0.101,0.002-0.201,0.004-0.302,0.004C37.564,47.897,37.027,47.858,36.484,47.771"/>
				<path fill="#614A2A" d="M26.832,31.977l-6.135,0.03c0,0-0.02,1.011,2.125,3.892c2.145,2.881,6.327,4.605,6.446,4.663
					c0.091,0.043,4.591,1.084,6.783,1.59c-0.033-0.834-0.036-1.662-0.023-2.421c-0.947-1.949-2.338-4.423-3.726-5.507
					C29.844,32.306,26.832,31.977,26.832,31.977"/>
				<path fill="#251507" d="M36.028,39.731c-0.013,0.76-0.01,1.587,0.023,2.421c0.708,0.164,1.174,0.271,1.174,0.271
					S36.758,41.233,36.028,39.731"/>
			</g>
		</g>
		<g>
			<g>
				<path fill="#FFFFFF" d="M23.551,71.154h1.927v-4.516c-0.663,0.277-1.434,0.371-2.173,0.355l-0.385-2.081
					c1.156-0.323,2.419-1.095,3.19-2.003h2.466v8.244h1.772v2.389h-6.796V71.154z"/>
				<path fill="#FFFFFF" d="M35.483,62.74c2.774,0,4.269,1.957,4.269,5.363c0,3.791-1.572,5.625-4.408,5.625
					c-2.836,0-4.285-1.834-4.285-5.44C31.06,64.697,32.663,62.74,35.483,62.74z M35.406,71.047c0.878,0,1.233-1.033,1.233-2.82
					c0-1.68-0.277-2.729-1.217-2.729c-0.94,0-1.233,1.049-1.233,2.79S34.481,71.047,35.406,71.047z"/>
				<path fill="#FFFFFF" d="M45.288,62.74c2.774,0,4.269,1.957,4.269,5.363c0,3.791-1.572,5.625-4.407,5.625
					c-2.836,0-4.284-1.834-4.284-5.44C40.865,64.697,42.468,62.74,45.288,62.74z M45.211,71.047c0.879,0,1.232-1.033,1.232-2.82
					c0-1.68-0.277-2.729-1.217-2.729c-0.94,0-1.232,1.049-1.232,2.79S44.286,71.047,45.211,71.047z"/>
			</g>
		</g>
	</g>
	<g>
		<g>
			<g>
				<path fill="#D8BD2C" d="M104.053,43.147c-5.469,0-11.72,7.28-11.72,7.28s-3.574,5.304-3.846,10.816
					c-0.957,19.479,11.548,27.715,11.548,27.715c3.876,3.867,9.712,6.041,15.6,6.041c5.647,0,11.341-2.001,15.39-6.426
					c12.076-13.195,10.831-25.67,2.694-38.303c-1.913-2.97-13.666-7.043-13.666-7.043s-2.608,0.145-5.903,0.203l-0.001,0.044
					l0.55,1.097l-0.519,1.229l-1.608-0.188c0,0-0.945-0.931-0.23-1.921l0.175-0.241c-0.319,0.002-0.642,0.004-0.966,0.004
					c-2.405,0-4.904-0.067-6.882-0.276C104.464,43.158,104.26,43.147,104.053,43.147"/>
				<path fill="#614B2B" d="M112.866,31.453l-0.586,1.366l0.286,2.378c0.514,0.382,1.005,0.764,1.455,1.126l-0.154-4.824
					L112.866,31.453z M114.107,39.034c-0.333,0.073-0.686,0.151-1.05,0.231l0.116,0.963l-0.118,2.476l-0.541,0.747
					c0.557-0.003,1.104-0.011,1.635-0.02l0.046-1.642L114.107,39.034z"/>
				<path fill="#383615" d="M114.149,43.431c-0.53,0.009-1.078,0.017-1.635,0.02l-0.175,0.241c-0.714,0.989,0.232,1.921,0.232,1.921
					l1.607,0.188l0.519-1.229l-0.55-1.097L114.149,43.431z"/>
				<path fill="#614B2B" d="M104.303,31.867c-2.49,0-4.403,0.667-4.403,0.667l-6.633,3.197c0,0,0.5,1.104,4.31,3.122
					c2.965,1.569,6.908,1.742,8.584,1.742c0.236,0,0.428-0.003,0.564-0.006c0.14-0.004,0.223-0.007,0.24-0.007
					c0.094,0,3.392-0.721,6.093-1.315l-0.491-4.068c-1.818-1.349-3.931-2.681-5.582-3.048
					C106.059,31.944,105.147,31.867,104.303,31.867 M114.021,36.323l0.086,2.71c1.397-0.308,2.439-0.539,2.439-0.539
					S115.503,37.517,114.021,36.323"/>
				<path fill="#2A1B0E" d="M112.567,35.197l0.49,4.068c0.364-0.08,0.717-0.158,1.05-0.231l-0.086-2.711
					C113.571,35.96,113.08,35.578,112.567,35.197"/>
			</g>
		</g>
		<g>
			<g>
				<path fill="#FFFFFF" d="M101.012,70.261c0.709,0.386,1.695,0.878,2.559,0.878c0.771,0,1.355-0.308,1.355-0.971
					c0-0.678-0.508-0.848-1.402-0.848c-0.338,0-0.801,0.047-1.062,0.093l-0.078-2.343c1.064-0.061,2.143-0.277,2.143-1.047
					c0-0.556-0.322-0.74-0.939-0.74c-0.756,0-1.449,0.293-2.096,0.662l-1.109-1.941c1.094-0.709,2.266-1.264,3.867-1.264
					c2.051,0,3.33,1.002,3.33,2.635c0,1.295-0.834,2.143-2.098,2.574c1.496,0.17,2.482,1.063,2.482,2.48
					c0,2.266-1.834,3.299-4.131,3.299c-1.34,0-2.758-0.447-3.883-1.465L101.012,70.261z"/>
				<path fill="#FFFFFF" d="M113.236,62.74c2.773,0,4.27,1.957,4.27,5.363c0,3.791-1.572,5.625-4.408,5.625s-4.285-1.834-4.285-5.44
					C108.812,64.697,110.416,62.74,113.236,62.74z M113.16,71.047c0.877,0,1.232-1.033,1.232-2.82c0-1.68-0.277-2.729-1.219-2.729
					c-0.939,0-1.232,1.049-1.232,2.79S112.234,71.047,113.16,71.047z"/>
				<path fill="#FFFFFF" d="M123.041,62.74c2.775,0,4.27,1.957,4.27,5.363c0,3.791-1.572,5.625-4.408,5.625
					c-2.834,0-4.283-1.834-4.283-5.44C118.619,64.697,120.221,62.74,123.041,62.74z M122.965,71.047c0.879,0,1.232-1.033,1.232-2.82
					c0-1.68-0.277-2.729-1.217-2.729s-1.232,1.049-1.232,2.79S122.041,71.047,122.965,71.047z"/>
			</g>
		</g>
	</g>
	<g>
		<g>
			<g>
				<path fill="#A60821" d="M192.157,40.33c-0.306,0.001-0.604,0.028-0.897,0.078c0.114,0.219,0.18,0.344,0.18,0.344L192.157,40.33z
					 M177.404,41.822c-3.089,2.496-1.829,7.181-1.829,7.181s-1.213-0.37-2.642-0.37c-1.551,0-3.354,0.436-4.136,2.252
					c-1.503,3.492-1.326,6.796-1.326,6.796s0.711,2.259,1.608,2.713c0,0-3.763,4.12-2.918,8.218s5.282,4.982,5.282,4.982
					s-1.689,2.806-1.035,5.311c0.653,2.504,4.485,3.082,4.485,3.082s-1.379,2.859,0.813,5.093c1.56,1.589,4.424,1.634,4.747,1.634
					h0.03c0,0,0.07,4.202,2.622,5.597c0.887,0.484,1.677,0.69,2.382,0.69c1.823,0,3.077-1.375,3.959-2.861
					c0,0,1.6,0.733,3.427,0.733c1.099,0,2.277-0.265,3.244-1.11c0,0,2.124-1.243,3.03-5.887c0,0,4.104-0.312,5.766-4.18
					c1.361-3.174,0.217-5.77,0.217-5.77s3.172-0.074,4.164-4.316c0.991-4.244-1.191-6.27-1.191-6.27s2.04-2.58,2.278-4.363
					c0.465-3.489-4.027-5.476-4.027-5.476s4.21-4.728,0.618-7.377c-1.212-0.894-2.615-1.19-3.941-1.19
					c-2.608,0-4.925,1.144-4.925,1.144s-0.252-3.47-2.005-5.762l-2.459,7.007l-0.674,2.821l-5.6-4.654l-8.772,1.464l2.22-3.435
					L177.404,41.822z"/>
				<path fill="#614B2B" d="M187.035,31.498c-0.093,0-2.239,5.813-1.793,9.221c0,0-4.313-2.637-8.207-2.637
					c-0.917,0-1.81,0.145-2.617,0.506l2.986,3.234c0.09-0.072,0.183-0.142,0.278-0.21c0.694-0.49,1.438-0.687,2.183-0.687
					c2.94,0.001,5.892,3.062,5.892,3.062s2.356-3.048,5.503-3.578c-0.838-1.611-4.326-8.356-4.226-8.871L187.035,31.498
					 M198.006,36.893l-5.849,3.436h0.022c0.415,0,0.842,0.048,1.274,0.158c1.135,0.286,1.995,0.976,2.648,1.828L198.006,36.893z"/>
				<path fill="#47000C" d="M192.18,40.329h-0.022l-0.718,0.423c0,0-0.065-0.125-0.18-0.344c-3.146,0.529-5.503,3.578-5.503,3.578
					s-2.952-3.06-5.892-3.062c-0.745,0-1.488,0.197-2.183,0.687c-0.097,0.069-0.188,0.139-0.278,0.21l3.413,3.697l-2.22,3.435
					l8.772-1.464l5.6,4.654l0.674-2.821l2.459-7.007c-0.653-0.853-1.514-1.542-2.648-1.828
					C193.021,40.377,192.595,40.329,192.18,40.329"/>
			</g>
		</g>
		<g>
			<g>
				<path fill="#FFFFFF" d="M179.364,62.74c1.094,0,2.25,0.309,3.205,0.924l-0.816,2.035c-0.555-0.277-1.311-0.432-1.942-0.432
					c-1.278,0-1.896,0.616-1.973,2.188c0.509-0.401,1.356-0.786,2.297-0.786c1.741,0,2.959,0.816,2.959,3.205
					c0,2.79-1.927,3.854-4.007,3.854c-2.944,0-4.131-1.941-4.131-5.24C174.956,64.883,176.497,62.74,179.364,62.74z M180.196,70.014
					c0-0.801-0.4-1.094-1.032-1.094c-0.493,0-0.94,0.231-1.188,0.4c0.031,1.033,0.263,1.881,1.188,1.881
					C179.842,71.201,180.196,70.815,180.196,70.014z"/>
				<path fill="#FFFFFF" d="M188.583,62.74c2.774,0,4.27,1.957,4.27,5.363c0,3.791-1.572,5.625-4.408,5.625
					c-2.835,0-4.284-1.834-4.284-5.44C184.16,64.697,185.763,62.74,188.583,62.74z M188.507,71.047c0.878,0,1.232-1.033,1.232-2.82
					c0-1.68-0.277-2.729-1.218-2.729c-0.939,0-1.232,1.049-1.232,2.79S187.582,71.047,188.507,71.047z"/>
				<path fill="#FFFFFF" d="M198.388,62.74c2.774,0,4.27,1.957,4.27,5.363c0,3.791-1.572,5.625-4.408,5.625
					c-2.835,0-4.284-1.834-4.284-5.44C193.965,64.697,195.567,62.74,198.388,62.74z M198.312,71.047c0.878,0,1.232-1.033,1.232-2.82
					c0-1.68-0.277-2.729-1.218-2.729c-0.939,0-1.232,1.049-1.232,2.79S197.387,71.047,198.312,71.047z"/>
			</g>
		</g>
	</g>
	<g>
		<g>
			<g>
				<path fill="#90B049" d="M260.992,24.366h-0.033l0.002,3.247l-1.025,0.036l-0.071-1.392c0,0-0.01-0.787-0.041-1.802
					c-1.167,0.177-2.449,0.632-3.83,1.496c-4.16,2.602-4.229,11.395-5.226,14.928c-0.995,3.533-3.53,8.303-7.471,14.369
					c-3.94,6.064-15.395,18.893-6.501,30.868c5.316,7.16,11.037,8.884,15.716,8.884c3.149,0,5.826-0.78,7.59-1.211
					c0.917,0.069,1.842,0.1,2.758,0.1c6.291,0,12.125-1.43,12.125-1.43s6.307-3.652,8.053-5.857
					c1.747-2.207,6.785-11.197,2.396-22.273c-4.387-11.077-8.786-17.221-10.489-21.687c-1.702-4.467-5.262-13.497-7.637-15.176
					C267.308,27.465,264.944,24.366,260.992,24.366"/>
				<path fill="#614B2B" d="M259.058,17.004l-0.704,1.049c0,0,1.247,2.209,1.364,4.027c0.05,0.768,0.083,1.633,0.105,2.375
					c0.392-0.06,0.771-0.088,1.136-0.089l-0.002-2.115c0,0,0.009-0.104,0.017-0.276c-0.394-0.026-0.796-0.054-1.209-0.084
					l1.138-2.25l-0.043-0.175C260.616,18.617,259.058,17.004,259.058,17.004"/>
				<path fill="#383615" d="M260.959,24.366c-0.365,0.002-0.744,0.03-1.136,0.089c0.031,1.015,0.04,1.802,0.04,1.802l0.072,1.392
					l1.025-0.036L260.959,24.366z"/>
				<path fill="#614B2B" d="M288.963,3.659c-3.466,0-11.479,0.199-15.696,1.93c-5.479,2.248-9.899,9.177-9.899,9.177l-2.466,4.875
					c0.139,0.687,0.101,1.815,0.073,2.333c3.341,0.223,6.032,0.32,8.227,0.32c7.982,0,9.421-1.271,11.82-2.31
					c3.139-1.359,7.699-7.89,7.699-7.89l1.907-8.418C290.628,3.677,289.999,3.659,288.963,3.659"/>
				<path fill="#2A1B0E" d="M260.901,19.642l-1.137,2.249c0.413,0.03,0.815,0.058,1.209,0.084
					C261.002,21.457,261.04,20.329,260.901,19.642"/>
			</g>
		</g>
		<g>
			<g>
				<path fill="#FFFFFF" d="M242.703,71.154h1.926v-4.516c-0.662,0.277-1.432,0.371-2.172,0.355l-0.385-2.081
					c1.154-0.323,2.418-1.095,3.189-2.003h2.465v8.244h1.773v2.389h-6.797V71.154z"/>
				<path fill="#FFFFFF" d="M254.635,62.74c2.773,0,4.27,1.957,4.27,5.363c0,3.791-1.572,5.625-4.408,5.625s-4.285-1.834-4.285-5.44
					C250.211,64.697,251.814,62.74,254.635,62.74z M254.559,71.047c0.877,0,1.232-1.033,1.232-2.82c0-1.68-0.277-2.729-1.219-2.729
					c-0.939,0-1.232,1.049-1.232,2.79S253.633,71.047,254.559,71.047z"/>
				<path fill="#FFFFFF" d="M264.439,62.74c2.773,0,4.27,1.957,4.27,5.363c0,3.791-1.572,5.625-4.408,5.625s-4.285-1.834-4.285-5.44
					C260.016,64.697,261.619,62.74,264.439,62.74z M264.363,71.047c0.877,0,1.232-1.033,1.232-2.82c0-1.68-0.277-2.729-1.219-2.729
					c-0.939,0-1.232,1.049-1.232,2.79S263.438,71.047,264.363,71.047z"/>
				<path fill="#FFFFFF" d="M274.244,62.74c2.775,0,4.27,1.957,4.27,5.363c0,3.791-1.572,5.625-4.408,5.625
					c-2.834,0-4.283-1.834-4.283-5.44C269.822,64.697,271.424,62.74,274.244,62.74z M274.168,71.047c0.879,0,1.232-1.033,1.232-2.82
					c0-1.68-0.277-2.729-1.217-2.729s-1.232,1.049-1.232,2.79S273.244,71.047,274.168,71.047z"/>
			</g>
		</g>
	</g>
</g>
</svg>
