<?xml version="1.0" encoding="UTF-8" standalone="no"?>
<!DOCTYPE svg PUBLIC "-//W3C//DTD SVG 1.1//EN" "http://www.w3.org/Graphics/SVG/1.1/DTD/svg11.dtd">
<svg width="100%" height="100%" viewBox="0 0 85 1500" version="1.1" xmlns="http://www.w3.org/2000/svg" xmlns:xlink="http://www.w3.org/1999/xlink" xml:space="preserve" style="fill-rule:evenodd;clip-rule:evenodd;stroke-linejoin:round;stroke-miterlimit:1.41421;">
    <g transform="matrix(1,0,0,1,-5251.1,-6512)">
        <g transform="matrix(8.33333,0,0,8.33333,918.824,5514.93)">
            <path d="M521.265,245.023L521.265,244.618C521.266,244.509 521.271,244.399 521.282,244.29C521.309,244.009 521.368,243.731 521.458,243.464C521.575,243.119 521.744,242.792 521.957,242.497C522.141,242.241 522.359,242.009 522.602,241.808C522.91,241.553 523.26,241.349 523.634,241.207C523.896,241.107 524.17,241.038 524.449,241C524.526,240.99 524.603,240.982 524.681,240.977C524.735,240.973 524.79,240.971 524.845,240.969C524.884,240.968 524.924,240.968 524.964,240.968C525.018,240.969 525.073,240.97 525.128,240.973C525.229,240.978 525.33,240.987 525.43,241C525.693,241.036 525.953,241.1 526.202,241.191C526.73,241.384 527.212,241.701 527.6,242.107C527.767,242.283 527.918,242.475 528.047,242.68C528.199,242.919 528.322,243.175 528.415,243.443C528.509,243.716 528.571,244.002 528.599,244.29C528.61,244.407 528.615,244.524 528.615,244.641L528.615,245.023L529.357,245.023C529.714,245.023 530.005,245.404 530.005,245.875L530.005,252.574C530.005,253.037 529.724,253.414 529.357,253.426L520.521,253.426C520.163,253.426 519.873,253.045 519.873,252.574L519.873,245.875C519.873,245.404 520.163,245.023 520.521,245.023L521.265,245.023ZM525.439,248.24L524.439,248.24L524.439,250.222L525.439,250.222L525.439,248.24ZM527.615,245.023L527.615,244.607C527.613,244.494 527.605,244.38 527.589,244.268C527.562,244.077 527.515,243.889 527.447,243.708C527.353,243.455 527.22,243.217 527.054,243.004C526.854,242.746 526.606,242.525 526.326,242.355C526.127,242.234 525.912,242.139 525.687,242.074C525.401,241.99 525.1,241.956 524.801,241.971C524.497,241.987 524.196,242.054 523.914,242.172C523.612,242.297 523.332,242.479 523.095,242.706C522.998,242.799 522.908,242.898 522.826,243.004C522.694,243.174 522.582,243.36 522.495,243.557C522.396,243.778 522.329,244.012 522.294,244.251C522.274,244.381 522.265,244.511 522.265,244.642L522.265,245.023L527.615,245.023Z" style="fill:rgb(130,178,65);"/>
        </g>
        <g transform="matrix(1,0,0,1,-11489.5,4658.87)">
            <path d="M16768.2,3102.53C16761.3,3097.85 16756.9,3090.01 16756.9,3081.13C16756.9,3066.81 16768.5,3055.21 16782.8,3055.21C16797.1,3055.21 16808.8,3066.81 16808.8,3081.13C16808.8,3090.01 16804.3,3097.85 16797.5,3102.52C16813.6,3108.49 16825,3123.95 16825,3142.1L16825,3161.44L16740.6,3161.44L16740.6,3142.1C16740.6,3123.96 16752.1,3108.49 16768.2,3102.53Z" style="fill:rgb(130,178,65);"/>
        </g>
        <g transform="matrix(1,0,0,1,-11461.2,4133.69)">
            <path d="M16796.7,3877.41L16717.1,3877.41L16717.1,3869.08L16796.7,3869.08L16796.7,3877.41ZM16761.3,3793.95L16780.8,3813.37L16736.5,3857.62L16717.4,3857.35L16717.1,3838.22L16760.8,3794.47L16761.3,3793.95ZM16767.2,3788.06L16777.3,3778.02L16796.7,3797.43L16786.6,3807.47L16767.2,3788.06Z" style="fill:rgb(130,178,65);"/>
        </g>
        <g transform="matrix(2.00671,0,0,2.00671,-16023,202.732)">
            <path d="M10629.2,3573.8L10641.1,3573.8C10642.6,3573.8 10643.8,3575.39 10643.8,3577.35L10643.8,3605.26C10643.8,3607.23 10642.6,3608.81 10641.1,3608.81L10604.3,3608.81C10602.8,3608.81 10601.6,3607.23 10601.6,3605.26L10601.6,3577.35C10601.6,3575.39 10602.8,3573.8 10604.3,3573.8L10616,3573.8L10616,3570.89L10629.2,3570.89L10629.2,3573.8ZM10622.9,3580.31C10623.4,3580.32 10623.9,3580.36 10624.4,3580.44C10625.4,3580.59 10626.4,3580.9 10627.4,3581.34C10628.7,3581.94 10629.8,3582.78 10630.8,3583.81C10631.6,3584.65 10632.2,3585.62 10632.7,3586.66C10633.1,3587.56 10633.4,3588.52 10633.6,3589.5C10633.8,3590.6 10633.8,3591.74 10633.6,3592.85C10633.5,3593.92 10633.2,3594.98 10632.7,3595.96C10632.1,3597.16 10631.4,3598.26 10630.4,3599.18C10629.4,3600.14 10628.3,3600.91 10627,3601.45C10625.7,3602 10624.3,3602.29 10622.9,3602.31C10621.4,3602.33 10620,3602.07 10618.7,3601.55C10616.6,3600.72 10614.8,3599.24 10613.5,3597.35C10612.9,3596.34 10612.4,3595.23 10612.1,3594.06C10611.8,3592.85 10611.7,3591.58 10611.8,3590.33C10611.9,3589.28 10612.1,3588.25 10612.5,3587.27C10613,3586.04 10613.7,3584.9 10614.6,3583.91C10615.5,3582.9 10616.6,3582.06 10617.8,3581.45C10618.8,3580.99 10619.8,3580.66 10620.8,3580.48C10621.3,3580.39 10621.8,3580.34 10622.3,3580.32C10622.5,3580.31 10622.7,3580.31 10622.9,3580.31ZM10622.6,3584.48C10622.3,3584.49 10621.9,3584.51 10621.6,3584.57C10621,3584.67 10620.4,3584.85 10619.8,3585.11C10618.5,3585.75 10617.3,3586.85 10616.6,3588.2C10616.3,3588.77 10616.1,3589.38 10616,3590.01C10615.9,3590.72 10615.9,3591.46 10615.9,3592.18C10616,3592.94 10616.3,3593.67 10616.6,3594.35C10616.9,3595.04 10617.4,3595.67 10617.9,3596.2C10618.6,3596.8 10619.3,3597.28 10620.1,3597.61C10620.9,3597.96 10621.8,3598.14 10622.7,3598.14C10623.6,3598.14 10624.5,3597.96 10625.4,3597.61C10626.2,3597.28 10626.9,3596.8 10627.5,3596.2C10628,3595.67 10628.5,3595.04 10628.8,3594.35C10629.2,3593.7 10629.4,3592.99 10629.5,3592.27C10629.6,3591.52 10629.6,3590.75 10629.4,3590.01C10629.3,3589.38 10629.1,3588.77 10628.8,3588.2C10628.1,3586.85 10627,3585.75 10625.6,3585.11C10625.1,3584.85 10624.5,3584.67 10623.9,3584.57C10623.5,3584.51 10623.2,3584.49 10622.8,3584.48C10622.7,3584.48 10622.7,3584.48 10622.6,3584.48Z" style="fill:rgb(130,178,65);"/>
        </g>
    </g>
</svg>
