<?xml version="1.0" encoding="utf-8"?>
<!DOCTYPE svg PUBLIC "-//W3C//DTD SVG 1.1//EN" "http://www.w3.org/Graphics/SVG/1.1/DTD/svg11.dtd">
<svg version="1.1" id="Layer_1" xmlns="http://www.w3.org/2000/svg" xmlns:xlink="http://www.w3.org/1999/xlink" x="0px" y="0px"
	 width="200px" height="50px" viewBox="0 0 200 50" enable-background="new 0 0 200 50" xml:space="preserve">
<g>
	<path fill="#C41620" d="M68.326,11.104c-1.823,1.471-1.078,4.234-1.078,4.234s-0.716-0.218-1.559-0.218
		c-0.914,0-1.978,0.257-2.438,1.328c-0.886,2.059-0.781,4.006-0.781,4.006s0.419,1.332,0.948,1.599c0,0-2.219,2.429-1.722,4.845
		c0.499,2.415,3.115,2.937,3.115,2.937s-0.996,1.654-0.609,3.13c0.384,1.476,2.644,1.817,2.644,1.817s-0.813,1.685,0.479,3.002
		c0.92,0.937,2.609,0.963,2.798,0.963c0.012,0,0.018,0,0.018,0s0.043,2.476,1.546,3.299c0.523,0.286,0.989,0.407,1.405,0.407
		c1.075,0,1.814-0.809,2.334-1.687c0,0,0.943,0.433,2.021,0.433c0.646,0,1.342-0.156,1.911-0.654c0,0,1.253-0.733,1.787-3.471
		c0,0,2.419-0.184,3.397-2.465c0.804-1.87,0.13-3.399,0.13-3.399s1.868-0.044,2.453-2.545c0.585-2.503-0.702-3.696-0.702-3.696
		s1.203-1.521,1.344-2.572c0.273-2.057-2.374-3.229-2.374-3.229s2.48-2.787,0.363-4.349c-0.714-0.527-1.54-0.702-2.322-0.702
		c-1.538,0-2.904,0.675-2.904,0.675s-0.147-2.046-1.181-3.396l-1.45,4.13l-0.397,1.664l-3.301-2.744l-5.172,0.863l1.31-2.024
		L68.326,11.104 M77.022,10.224c-0.18,0.001-0.356,0.017-0.529,0.046c0.067,0.129,0.105,0.203,0.105,0.203L77.022,10.224"/>
	<path fill="#6A4A24" d="M80.472,8.198l-3.449,2.026c0.004,0,0.009,0,0.013,0c0.245,0,0.496,0.029,0.752,0.093
		c0.669,0.168,1.177,0.575,1.562,1.079L80.472,8.198 M74.003,5.017c-0.056,0-1.319,3.427-1.057,5.436c0,0-2.543-1.555-4.839-1.555
		c-0.54,0-1.065,0.086-1.542,0.298l1.761,1.907c0.052-0.042,0.106-0.083,0.163-0.124c0.409-0.29,0.848-0.405,1.286-0.405
		c1.733,0,3.474,1.805,3.474,1.805s1.389-1.797,3.244-2.11c-0.494-0.95-2.55-4.926-2.49-5.23
		C74.006,5.024,74.006,5.017,74.003,5.017"/>
	<path fill="#510605" d="M77.035,10.224c-0.004,0-0.009,0-0.013,0l-0.424,0.249c0,0-0.038-0.073-0.105-0.203
		c-1.855,0.312-3.244,2.11-3.244,2.11s-1.74-1.805-3.474-1.805c-0.438,0-0.877,0.116-1.286,0.405
		c-0.057,0.04-0.111,0.081-0.163,0.124l2.013,2.18l-1.31,2.024l5.172-0.863l3.301,2.744l0.397-1.664l1.45-4.13
		c-0.386-0.503-0.894-0.91-1.562-1.079C77.531,10.252,77.28,10.224,77.035,10.224"/>
	<path fill="#6A4A24" d="M178.366,19.153l-6.226,5.141l-0.74-4.816l-2.766,3.225l-1.823-2.382c0,0-1.707,1.455-3.857,2.148
		c-0.504,2.39-0.575,4.773-0.402,6.334c0.398,3.613,7.943,14.129,7.943,14.129l13.019-6.067c0,0,3.865-2.654,5.506-6.914
		c-2.098-1.88-2.801-4.972-2.801-4.972l-2.831,2.837c-0.36-3.049,0.126-5.296,0.126-5.296l-3.875,0.872L178.366,19.153"/>
	<path fill="#6A4A24" d="M181.325,7.068l-2.432,4.788c-0.409-0.115-2.933-0.582-2.933-0.582s-0.758-0.139-1.914-0.139
		c-2.696,0-7.563,0.756-10.08,5.794c0,0-1.344,3.433-3.737,5.863c0.205,0.024,0.41,0.036,0.615,0.036
		c0.721,0,1.437-0.143,2.109-0.359c0.663-3.139,2.072-6.29,4.655-7.611c2.522-1.289,5.368-1.576,7.404-1.576
		c1.64,0,2.755,0.187,2.755,0.187s9.737,2.514,11.667,10.258c0.576,2.312,0.281,4.414-0.416,6.225
		c0.329,0.296,0.694,0.562,1.096,0.781c0,0,1.057-3.639,0.643-6.428c-0.769-5.196-3.478-8.57-6.651-10.189
		c-0.721-0.367-3.371-1.389-3.89-1.766l1.886-4.804L181.325,7.068"/>
	<path fill="#2C1505" d="M175.014,13.281c-2.036,0-4.882,0.288-7.404,1.576c-2.583,1.321-3.992,4.473-4.655,7.611
		c2.15-0.693,3.857-2.148,3.857-2.148l1.823,2.382l2.766-3.225l0.74,4.816l6.226-5.141l1.272,4.239l3.875-0.872
		c0,0-0.486,2.247-0.126,5.296l2.831-2.837c0,0,0.703,3.091,2.801,4.972c0.697-1.812,0.992-3.914,0.416-6.225
		c-1.93-7.745-11.667-10.258-11.667-10.258S176.653,13.281,175.014,13.281"/>
	<path fill="#6A4A24" d="M34.606,8.658c-2.013,0-3.992,0.763-4.063,0.785l-3.574,2.093l-0.492,0.875
		c0.419,0.179,1.034,0.43,1.723,0.672c1.537-0.381,2.641-0.916,2.87-0.982c0.461-0.136,0.913-0.199,1.353-0.199
		c0.982,0,1.906,0.312,2.746,0.813c0.27-0.166,0.422-0.281,0.422-0.281l2.911-2.793c0,0-0.448-0.491-2.774-0.894
		C35.361,8.685,34.983,8.658,34.606,8.658"/>
	<path fill="#E3BF07" d="M18.474,12.237c-2.065,0-5.323,1.333-6.844,3.152c-2.17,2.595-3.74,6.664-2.682,11.355
		c1.059,4.691,2.1,5.664,3.705,8.338c1.593,2.653,6.152,5.202,7.397,5.202c0.01,0,0.019,0,0.028,0
		c1.083-0.036,1.79-1.521,2.903-1.521c0.12,0,0.244,0.017,0.374,0.055c1.299,0.377,3.045,2.054,4.912,2.054
		c0.057,0,0.114-0.001,0.172-0.005c1.932-0.109,6.412-4.587,8.958-10.784c2.543-6.198,3.076-9.533,1.958-12.254
		c-0.692-1.687-2.204-3.928-4.186-5.112c-0.603,0.369-1.795,0.986-3.204,1.123c-0.102,0.01-0.209,0.015-0.32,0.015
		c-0.992,0-2.317-0.374-3.444-0.77c-0.674,0.167-1.432,0.304-2.236,0.359l-0.413,1.783l-0.603-0.139l0.375-1.619
		c-0.036,0-0.072,0-0.107,0c-0.086,0-0.173-0.001-0.26-0.003c-1.7-0.041-3.526-0.894-5.991-1.201
		C18.811,12.246,18.646,12.237,18.474,12.237"/>
	<path fill="#5E3701" d="M32.423,11.902c-0.44,0-0.892,0.062-1.353,0.199c-0.229,0.067-1.333,0.602-2.87,0.982
		c1.127,0.396,2.453,0.77,3.444,0.77c0.111,0,0.218-0.005,0.32-0.015c1.409-0.137,2.601-0.754,3.204-1.123
		C34.33,12.214,33.406,11.902,32.423,11.902"/>
	<path fill="#6A4A24" d="M28.17,9.399l-1.345,0.324l-1.417,3.377l-0.085,0.368c0.216-0.002,0.43-0.011,0.641-0.026l0.047-0.204
		l0.465-0.828c-0.356-0.152-0.571-0.252-0.571-0.252l1.062-0.623L28.17,9.399"/>
	<path fill="#2C1505" d="M26.969,11.536l-1.062,0.623c0,0,0.215,0.101,0.571,0.252L26.969,11.536"/>
	<path fill="#5E3701" d="M25.965,13.443c-0.21,0.015-0.424,0.023-0.641,0.026l-0.375,1.619l0.603,0.139L25.965,13.443"/>
	<path fill="#82B13E" d="M124.869,29.466l0.158,4.824c0.353,0.77,0.565,1.312,0.565,1.312l-0.526-0.123l0.165,5.048l-0.073,1.523
		l-0.066,1.818l0.759,0.089l0.016-0.657l-0.034-0.774l0.028-1.038l-0.226-11.87C125.391,29.571,125.136,29.521,124.869,29.466
		 M124.711,24.645l0.13,3.951l0.753-1.09l-0.052-2.749L124.711,24.645 M124.498,18.149l0.163,4.969
		c0.435,0.708,0.758,1.311,0.879,1.543l-0.117-6.169C125.092,18.377,124.778,18.26,124.498,18.149 M124.885,11.816
		c-0.015,0.408-0.04,0.873-0.079,1.404l-0.477-0.241l0.129,3.94l0.925-0.541l-0.031-1.614c-0.384,0.119-0.647,0.187-0.647,0.187
		l0.619-1.673l-0.027-1.443L124.885,11.816"/>
	<path fill="#82B13E" d="M125.54,24.662l0.002,0.095l0.051,0.007C125.593,24.764,125.574,24.728,125.54,24.662 M118.56,18.929
		l-3.784,0.381c0,0,0.047,0.625,1.54,2.277c1.494,1.653,4.178,2.47,4.255,2.498l4.141,0.56l-0.05-1.526
		c-0.698-1.138-1.687-2.547-2.593-3.125C120.438,18.955,118.56,18.929,118.56,18.929"/>
	<path fill="#427B0F" d="M124.661,23.119l0.05,1.526l0.831,0.112l-0.002-0.095C125.419,24.43,125.096,23.827,124.661,23.119"/>
	<path fill="#82B13E" d="M124.458,16.92l-1.201,0.704c0,0,0.508,0.237,1.241,0.526L124.458,16.92 M131.229,14.415
		c-1.845,0-3.657,0.699-3.723,0.72l-2.123,1.244l0.04,2.113c1.02,0.355,2.205,0.684,3.097,0.684c0.101,0,0.198-0.004,0.291-0.013
		c1.869-0.182,3.323-1.288,3.323-1.288l2.666-2.559c0,0-0.41-0.45-2.543-0.819C131.92,14.439,131.574,14.415,131.229,14.415"/>
	<path fill="#427B0F" d="M125.383,16.379l-0.925,0.541l0.04,1.229c0.28,0.11,0.594,0.228,0.925,0.343L125.383,16.379"/>
	<path fill="#82B13E" d="M129.385,9.215c-0.098,0-0.521,0.04-1.542,0.618c-1.187,0.671-2.033,2.166-2.062,2.208l-0.458,1.237
		l0.028,1.486c0.796-0.247,2.108-0.718,2.675-1.281c0.839-0.835,1.105-1.955,1.105-1.955l0.276-2.313
		C129.408,9.216,129.4,9.215,129.385,9.215"/>
	<path fill="#427B0F" d="M125.323,13.278l-0.619,1.673c0,0,0.264-0.067,0.647-0.187L125.323,13.278"/>
	<path fill="#82B13E" d="M117.913,27.882l-4.534,0.023c0,0-0.015,0.746,1.568,2.875c1.587,2.129,4.675,3.402,4.766,3.445
		l5.354,1.252l-0.039-1.188c-0.68-1.483-1.879-3.813-3.074-4.747C120.138,28.125,117.913,27.882,117.913,27.882"/>
	<path fill="#427B0F" d="M125.027,34.29l0.039,1.188l0.526,0.123C125.593,35.602,125.38,35.06,125.027,34.29"/>
	<path fill="#82B13E" d="M120.571,6.043c0,0-0.078,2.764,0.444,4.037c0.522,1.274,2.133,2.303,2.133,2.303l1.181,0.597l-0.011-0.331
		l0.359-0.842l0.207,0.01c0.092-2.565-0.25-2.91-0.521-3.54c-0.316-0.729-1.835-1.79-1.835-1.79L120.571,6.043"/>
	<path fill="#427B0F" d="M124.678,11.807l-0.359,0.842l0.011,0.331l0.477,0.241c0.039-0.531,0.064-0.996,0.079-1.404L124.678,11.807
		"/>
	<path fill="#82B13E" d="M124.841,28.596l-0.522,0.756c0.188,0.04,0.372,0.078,0.551,0.115L124.841,28.596 M132.111,23.916
		c-0.772,0-1.515,0.054-2.091,0.203c-2.096,0.542-4.042,2.831-4.042,2.831l-0.385,0.556l0.041,2.112
		c2.021,0.388,3.293,0.52,4.175,0.52c1.19,0,1.666-0.241,2.303-0.419c1.204-0.336,3.181-2.473,3.181-2.473l1.111-2.955
		C136.404,24.292,134.149,23.916,132.111,23.916"/>
	<path fill="#427B0F" d="M125.594,27.506l-0.753,1.09l0.028,0.871c0.267,0.055,0.521,0.105,0.766,0.152L125.594,27.506"/>
</g>
</svg>
