<?xml version="1.0" encoding="utf-8"?>
<!DOCTYPE svg PUBLIC "-//W3C//DTD SVG 1.1//EN" "http://www.w3.org/Graphics/SVG/1.1/DTD/svg11.dtd">
<svg version="1.1" id="Layer_1" xmlns="http://www.w3.org/2000/svg" xmlns:xlink="http://www.w3.org/1999/xlink" x="0px" y="0px"
	 width="17px" height="17px" viewBox="0 0 17 17" enable-background="new 0 0 17 17" xml:space="preserve">
<path fill="#444444" d="M6.625,3.342V1.776C4.313,2.421,2.478,4.204,1.794,6.5h1.587C3.954,5.033,5.143,3.882,6.625,3.342z"/>
<path fill="#444444" d="M13.619,6.5h1.587c-0.659-2.214-2.386-3.96-4.581-4.661v1.604C11.988,4.019,13.078,5.117,13.619,6.5z"/>
<path fill="#444444" d="M3.381,10.5H1.794c0.684,2.296,2.52,4.079,4.831,4.725v-1.566C5.143,13.117,3.954,11.967,3.381,10.5z"/>
<path fill="#444444" d="M13.619,10.5c-0.541,1.383-1.631,2.48-2.994,3.057v1.604c2.195-0.7,3.922-2.446,4.581-4.66L13.619,10.5
	L13.619,10.5z"/>
<path fill="#444444" d="M7.625,12.357V17h2v-4.643c-0.32,0.084-0.652,0.143-1,0.143S7.946,12.441,7.625,12.357z"/>
<path fill="#444444" d="M9.625,4.642V0h-2v4.642c0.321-0.084,0.652-0.142,1-0.142S9.305,4.558,9.625,4.642z"/>
<path fill="#444444" d="M4.625,8.5c0-0.348,0.058-0.679,0.142-1H0v2h4.767C4.683,9.18,4.625,8.848,4.625,8.5z"/>
<path fill="#444444" d="M12.482,7.5c0.084,0.321,0.143,0.652,0.143,1s-0.059,0.68-0.143,1H17v-2H12.482z"/>
<circle fill="#444444" cx="8.625" cy="8.562" r="2"/>
</svg>
