<?xml version="1.0" encoding="UTF-8" standalone="no"?>
<!DOCTYPE svg PUBLIC "-//W3C//DTD SVG 1.1//EN" "http://www.w3.org/Graphics/SVG/1.1/DTD/svg11.dtd">
<svg width="100%" height="100%" viewBox="0 0 73 73" version="1.1" xmlns="http://www.w3.org/2000/svg" xmlns:xlink="http://www.w3.org/1999/xlink" xml:space="preserve" style="fill-rule:evenodd;clip-rule:evenodd;stroke-linejoin:round;stroke-miterlimit:1.41421;">
    <g transform="matrix(1,0,0,1,-138.573,-251.839)">
        <g transform="matrix(4.16667,0,0,4.16667,0,0)">
            <g transform="matrix(0.24,0,0,0.24,-32.3875,-208.035)">
                <path d="M304.95,1129.55L304.95,1118.65L314.934,1118.65L314.934,1129.73C325.027,1131.91 332.927,1140.04 334.8,1150.27L346.363,1150.27L346.363,1160.25L334.68,1160.25C332.607,1170.19 324.823,1178.04 314.934,1180.18L314.934,1190.85L304.95,1190.85L304.95,1180.35C294.633,1178.5 286.438,1170.48 284.311,1160.23L273.521,1160.23L273.521,1150.25L284.199,1150.25C286.135,1139.73 294.442,1131.44 304.95,1129.55ZM310.127,1138.43C319.391,1138.43 326.913,1145.92 326.913,1155.15C326.913,1164.38 319.391,1171.87 310.127,1171.87C300.863,1171.87 293.341,1164.38 293.341,1155.15C293.341,1145.92 300.863,1138.43 310.127,1138.43Z" style="fill:rgb(129,179,64);"/>
            </g>
        </g>
        <g transform="matrix(4.16667,0,0,4.16667,0,0)">
            <g transform="matrix(0.24,0,0,0.269406,-32.3023,-242.041)">
                <ellipse cx="309.587" cy="1155.21" rx="5.48" ry="5.023" style="fill:rgb(129,179,64);"/>
            </g>
        </g>
    </g>
</svg>
