<?xml version="1.0" encoding="utf-8"?>
<!DOCTYPE svg PUBLIC "-//W3C//DTD SVG 1.1//EN" "http://www.w3.org/Graphics/SVG/1.1/DTD/svg11.dtd">
<svg version="1.1" id="Layer_1" xmlns="http://www.w3.org/2000/svg" xmlns:xlink="http://www.w3.org/1999/xlink" x="0px" y="0px"
	 width="17px" height="17px" viewBox="0 0 17 17" enable-background="new 0 0 17 17" xml:space="preserve">
<path fill="#444444" d="M10,0C6.135,0,3,3.135,3,7c0,1.572,0.524,3.018,1.399,4.186L0,15.586L1.414,17l4.399-4.399
	C6.982,13.476,8.428,14,10,14c3.865,0,7-3.135,7-7S13.865,0,10,0z M10,12.5c-3.037,0-5.5-2.463-5.5-5.5S6.963,1.5,10,1.5
	s5.5,2.463,5.5,5.5S13.037,12.5,10,12.5z"/>
</svg>
