<?xml version="1.0" encoding="UTF-8" standalone="no"?>
<!DOCTYPE svg PUBLIC "-//W3C//DTD SVG 1.1//EN" "http://www.w3.org/Graphics/SVG/1.1/DTD/svg11.dtd">
<svg width="100%" height="100%" viewBox="0 0 65 66" version="1.1" xmlns="http://www.w3.org/2000/svg" xmlns:xlink="http://www.w3.org/1999/xlink" xml:space="preserve" style="fill-rule:evenodd;clip-rule:evenodd;stroke-linejoin:round;stroke-miterlimit:1.41421;">
    <g transform="matrix(1,0,0,1,-941.019,-945.413)">
        <g transform="matrix(4.16667,0,0,4.16667,0,0)">
            <g transform="matrix(0.24,0,0,0.24,-37.4395,0.458622)">
                <path d="M1114.48,984.44C1111.43,980.197 1109.64,974.997 1109.64,969.382C1109.64,955.098 1121.24,943.502 1135.53,943.502C1149.81,943.502 1161.41,955.098 1161.41,969.382C1161.41,983.665 1149.81,995.261 1135.53,995.261C1130.47,995.261 1125.75,993.809 1121.77,991.3L1104.09,1008.97L1097.02,1001.9L1114.48,984.44ZM1135.54,953.202C1144.35,953.202 1151.5,960.405 1151.5,969.277C1151.5,978.15 1144.35,985.353 1135.54,985.353C1126.72,985.353 1119.57,978.15 1119.57,969.277C1119.57,960.405 1126.72,953.202 1135.54,953.202Z" style="fill:rgb(131,179,64);"/>
            </g>
        </g>
    </g>
</svg>
