<?xml version="1.0" encoding="UTF-8" standalone="no"?>
<!DOCTYPE svg PUBLIC "-//W3C//DTD SVG 1.1//EN" "http://www.w3.org/Graphics/SVG/1.1/DTD/svg11.dtd">
<svg width="100%" height="100%" viewBox="0 0 138 138" version="1.1" xmlns="http://www.w3.org/2000/svg" xmlns:xlink="http://www.w3.org/1999/xlink" xml:space="preserve" style="fill-rule:evenodd;clip-rule:evenodd;stroke-linejoin:round;stroke-miterlimit:1.41421;">
    <g transform="matrix(1,0,0,1,-4925.41,-116.315)">
        <g transform="matrix(4.16667,0,0,4.16667,0,0)">
            <g transform="matrix(0.24,0,0,0.24,22.174,0.2581)">
                <path d="M4970.56,184.006C4970.56,221.985 4939.77,252.777 4901.79,252.777C4863.81,252.777 4833.02,221.985 4833.02,184.006C4833.02,146.027 4863.81,115.239 4901.79,115.239C4939.77,115.239 4970.56,146.027 4970.56,184.006ZM4871.83,196.251C4877.07,196.251 4881.31,200.498 4881.31,205.729C4881.31,210.961 4877.07,215.208 4871.83,215.208C4866.6,215.208 4862.36,210.961 4862.36,205.729C4862.36,200.498 4866.6,196.251 4871.83,196.251ZM4901.94,196.251C4907.17,196.251 4911.42,200.498 4911.42,205.729C4911.42,210.961 4907.17,215.208 4901.94,215.208C4896.71,215.208 4892.46,210.961 4892.46,205.729C4892.46,200.498 4896.71,196.251 4901.94,196.251ZM4929.73,196.251C4934.96,196.251 4939.2,200.498 4939.2,205.729C4939.2,210.961 4934.96,215.208 4929.73,215.208C4924.49,215.208 4920.25,210.961 4920.25,205.729C4920.25,200.498 4924.49,196.251 4929.73,196.251ZM4916.09,170.272C4921.32,170.272 4925.57,174.52 4925.57,179.751C4925.57,184.982 4921.32,189.229 4916.09,189.229C4910.86,189.229 4906.61,184.982 4906.61,179.751C4906.61,174.52 4910.86,170.272 4916.09,170.272ZM4887.67,170.272C4892.9,170.272 4897.15,174.52 4897.15,179.751C4897.15,184.982 4892.9,189.229 4887.67,189.229C4882.44,189.229 4878.19,184.982 4878.19,179.751C4878.19,174.52 4882.44,170.272 4887.67,170.272ZM4901.94,144.714C4907.17,144.714 4911.42,148.961 4911.42,154.192C4911.42,159.423 4907.17,163.671 4901.94,163.671C4896.71,163.671 4892.46,159.423 4892.46,154.192C4892.46,148.961 4896.71,144.714 4901.94,144.714Z" style="fill:white;"/>
            </g>
        </g>
    </g>
</svg>
