<?xml version="1.0" encoding="UTF-8" standalone="no"?>
<!DOCTYPE svg PUBLIC "-//W3C//DTD SVG 1.1//EN" "http://www.w3.org/Graphics/SVG/1.1/DTD/svg11.dtd">
<svg width="100%" height="100%" viewBox="0 0 138 138" version="1.1" xmlns="http://www.w3.org/2000/svg" xmlns:xlink="http://www.w3.org/1999/xlink" xml:space="preserve" style="fill-rule:evenodd;clip-rule:evenodd;stroke-linejoin:round;stroke-miterlimit:1.41421;">
    <g transform="matrix(1,0,0,1,-4833.02,-115.24)">
        <path d="M4970.56,184.006C4970.56,221.985 4939.77,252.777 4901.79,252.777C4863.81,252.777 4833.02,221.985 4833.02,184.006C4833.02,146.027 4863.81,115.239 4901.79,115.239C4939.77,115.239 4970.56,146.027 4970.56,184.006ZM4875.62,196.989C4880.86,196.989 4885.1,201.236 4885.1,206.467C4885.1,211.699 4880.86,215.946 4875.62,215.946C4870.39,215.946 4866.15,211.699 4866.15,206.467C4866.15,201.236 4870.39,196.989 4875.62,196.989ZM4901.94,196.251C4907.17,196.251 4911.42,200.498 4911.42,205.729C4911.42,210.961 4907.17,215.208 4901.94,215.208C4896.71,215.208 4892.46,210.961 4892.46,205.729C4892.46,200.498 4896.71,196.251 4901.94,196.251ZM4928.08,196.989C4933.31,196.989 4937.55,201.236 4937.55,206.467C4937.55,211.699 4933.31,215.946 4928.08,215.946C4922.84,215.946 4918.6,211.699 4918.6,206.467C4918.6,201.236 4922.84,196.989 4928.08,196.989ZM4914.96,170.892C4920.19,170.892 4924.44,175.14 4924.44,180.371C4924.44,185.602 4920.19,189.849 4914.96,189.849C4909.73,189.849 4905.48,185.602 4905.48,180.371C4905.48,175.14 4909.73,170.892 4914.96,170.892ZM4888.78,170.892C4894.01,170.892 4898.26,175.14 4898.26,180.371C4898.26,185.602 4894.01,189.849 4888.78,189.849C4883.55,189.849 4879.3,185.602 4879.3,180.371C4879.3,175.14 4883.55,170.892 4888.78,170.892ZM4901.7,144.797C4906.93,144.797 4911.18,149.044 4911.18,154.275C4911.18,159.506 4906.93,163.754 4901.7,163.754C4896.47,163.754 4892.22,159.506 4892.22,154.275C4892.22,149.044 4896.47,144.797 4901.7,144.797Z" style="fill:white;"/>
    </g>
</svg>
