<?xml version="1.0" encoding="UTF-8" standalone="no"?>
<!DOCTYPE svg PUBLIC "-//W3C//DTD SVG 1.1//EN" "http://www.w3.org/Graphics/SVG/1.1/DTD/svg11.dtd">
<svg width="100%" height="100%" viewBox="0 0 91 91" version="1.1" xmlns="http://www.w3.org/2000/svg" xmlns:xlink="http://www.w3.org/1999/xlink" xml:space="preserve" style="fill-rule:evenodd;clip-rule:evenodd;stroke-linejoin:round;stroke-miterlimit:1.41421;">
    <g transform="matrix(1,0,0,1,-2686.48,-55.4562)">
        <g transform="matrix(4.16667,0,0,4.16667,1500,0)">
            <g transform="matrix(1,0,0,1,-0.0280624,-6.2542)">
                <path d="M295.585,32.488L284.782,21.685L286.903,19.564L295.585,28.246L304.267,19.564L306.388,21.685L295.585,32.488Z" style="fill:white;fill-rule:nonzero;"/>
            </g>
        </g>
        <g transform="matrix(4.16667,0,0,4.16667,1500,0)">
            <g transform="matrix(-1,-1.22465e-16,1.22465e-16,-1,591.197,54.6062)">
                <path d="M295.585,32.488L284.782,21.685L286.903,19.564L295.585,28.246L304.267,19.564L306.388,21.685L295.585,32.488Z" style="fill:white;fill-rule:nonzero;"/>
            </g>
        </g>
    </g>
</svg>
